<?xml version="1.0" encoding="UTF-8"?>
<svg id="Livello_2" data-name="Livello 2" xmlns="http://www.w3.org/2000/svg" viewBox="0 0 16.37 19.02">
  <g id="Livello_1-2" data-name="Livello 1">
    <path d="M15.13,19.02H2.73c-1.51,0-2.73-1.15-2.73-2.56V2.56C0,1.15,1.22,0,2.73,0h12.4c.68,0,1.24.53,1.24,1.18v16.66c0,.65-.56,1.18-1.24,1.18ZM.52,16.7c.13,1.02,1.08,1.81,2.21,1.81h12.4c.41,0,.74-.3.74-.68v-1.14H.52ZM.52,16.2h15.36v-1.81H2.73c-1.14,0-2.08.79-2.21,1.81ZM2.73.5C1.5.5.5,1.43.5,2.56v12.41c.5-.66,1.31-1.09,2.23-1.09h13.14V1.18c0-.37-.33-.68-.74-.68H2.73Z"/>
    <path d="M12.16,10.84h-7.94c-.14,0-.25-.11-.25-.25v-5.71c0-.14.11-.25.25-.25h7.94c.14,0,.25.11.25.25s-.11.25-.25.25h-7.69v5.21h7.69c.14,0,.25.11.25.25s-.11.25-.25.25Z"/>
    <path d="M10.17,7.98h-5.95c-.14,0-.25-.11-.25-.25s.11-.25.25-.25h5.95c.14,0,.25.11.25.25s-.11.25-.25.25Z"/>
  </g>
</svg>