<?xml version="1.0" encoding="UTF-8"?>
<svg id="Livello_2" data-name="Livello 2" xmlns="http://www.w3.org/2000/svg" viewBox="0 0 56.69 56.69">
  <defs>
    <style>
      .cls-1 {
        fill: #fff;
      }

      .cls-2 {
        fill: #3a3535;
      }
    </style>
  </defs>
  <g id="Livello_1-2" data-name="Livello 1">
    <polygon class="cls-2" points="0 0 0 8.13 0 56.69 44.08 56.69 56.69 56.69 56.69 0 0 0"/>
    <g>
      <path class="cls-1" d="M5.41,37.01l3.77-4.14c.7.83,1.53,1.51,2.48,2.05.95.54,1.82.8,2.62.8s1.41-.19,1.93-.57c.52-.38.78-.85.78-1.4s-.25-1.03-.74-1.45c-.49-.41-1.39-.96-2.71-1.63-1.32-.67-2.43-1.31-3.33-1.91-.9-.6-1.65-1.22-2.23-1.86-.58-.64-1-1.32-1.26-2.02-.26-.7-.39-1.49-.39-2.34,0-.95.19-1.85.57-2.71.38-.86.92-1.61,1.61-2.25.69-.64,1.52-1.15,2.5-1.52.98-.37,2.05-.55,3.22-.55,1.59,0,3.09.34,4.48,1.03,1.39.69,2.58,1.69,3.56,3.01l-3.77,3.81c-.71-.7-1.4-1.26-2.09-1.65-.69-.4-1.4-.6-2.14-.6-.61,0-1.13.12-1.56.37-.43.25-.64.61-.64,1.1,0,.46.2.83.6,1.1.4.28.93.58,1.61.92,1.5.74,2.78,1.42,3.84,2.07,1.06.64,1.93,1.31,2.62,2,.69.69,1.19,1.42,1.52,2.21s.48,1.68.48,2.69c0,1.1-.21,2.11-.62,3.03-.41.92-1,1.72-1.77,2.41-.77.69-1.69,1.23-2.76,1.61-1.07.38-2.28.57-3.63.57-3.55,0-6.4-1.39-8.55-4.18Z"/>
      <path class="cls-1" d="M37.49,15.5c2.91,0,5.47,1.1,7.68,3.31v-2.67h6.11v33.32h-6.11v-11.49c-1.07,1.07-2.21,1.88-3.4,2.41-1.19.54-2.57.8-4.14.8s-3.04-.31-4.44-.94c-1.39-.63-2.63-1.51-3.7-2.64-1.07-1.13-1.92-2.49-2.55-4.07-.63-1.58-.94-3.3-.94-5.17s.3-3.64.9-5.22c.6-1.58,1.42-2.93,2.46-4.07,1.04-1.13,2.26-2.01,3.65-2.64,1.39-.63,2.89-.94,4.48-.94ZM32.16,28.32c0,1.04.16,2.01.48,2.9.32.89.77,1.65,1.36,2.3.58.64,1.28,1.15,2.09,1.52.81.37,1.69.55,2.64.55s1.83-.17,2.64-.51c.81-.34,1.52-.83,2.11-1.47.6-.64,1.07-1.42,1.42-2.32.35-.9.53-1.91.53-3.01s-.17-2.05-.51-2.92c-.34-.87-.8-1.62-1.4-2.25-.6-.63-1.3-1.12-2.11-1.47-.81-.35-1.71-.53-2.69-.53s-1.92.19-2.73.57c-.81.38-1.5.9-2.07,1.54-.57.64-1,1.4-1.31,2.28-.31.87-.46,1.82-.46,2.83Z"/>
    </g>
  </g>
</svg>