<?xml version="1.0" encoding="UTF-8"?>
<svg id="Livello_2" data-name="Livello 2" xmlns="http://www.w3.org/2000/svg" viewBox="0 0 29.27 20.34">
  <g id="Livello_1-2" data-name="Livello 1">
    <path d="M29.02,20.34c-.14,0-.25-.11-.25-.25v-1.95c0-2.02-1.64-3.65-3.65-3.65h-5.86c-2.01,0-3.65,1.64-3.65,3.65v1.95c0,.14-.11.25-.25.25s-.25-.11-.25-.25v-1.95c0-2.29,1.86-4.15,4.15-4.15h5.86c2.29,0,4.15,1.86,4.15,4.15v1.95c0,.14-.11.25-.25.25Z"/>
    <path d="M22.18,11.5c-1.94,0-3.64-1.37-4.05-3.25-.03-.14.06-.27.19-.3.13-.03.27.06.3.19.36,1.66,1.86,2.86,3.56,2.86s3.2-1.2,3.56-2.86c.03-.14.16-.22.3-.19.13.03.22.16.19.3-.41,1.88-2.11,3.25-4.05,3.25Z"/>
    <path d="M23.25,3.68c-.14,0-.25-.11-.25-.25V.78c0-.15-.13-.28-.28-.28h-1.06c-.15,0-.28.13-.28.28v2.65c0,.14-.11.25-.25.25s-.25-.11-.25-.25V.78c0-.43.35-.78.78-.78h1.06c.43,0,.78.35.78.78v2.65c0,.14-.11.25-.25.25Z"/>
    <path d="M26.43,6.33c-.14,0-.25-.11-.25-.25v-1.59c0-1.62-1.31-2.93-2.93-2.93-.14,0-.25-.11-.25-.25s.11-.25.25-.25c1.89,0,3.43,1.54,3.43,3.43v1.59c0,.14-.11.25-.25.25Z"/>
    <path d="M17.95,6.33c-.14,0-.25-.11-.25-.25v-1.59c0-1.89,1.54-3.43,3.43-3.43.14,0,.25.11.25.25s-.11.25-.25.25c-1.62,0-2.93,1.31-2.93,2.93v1.59c0,.14-.11.25-.25.25Z"/>
    <path d="M26.49,8.45h-8.6c-.69,0-1.25-.56-1.25-1.25v-.12c0-.69.56-1.25,1.25-1.25h8.6c.69,0,1.25.56,1.25,1.25v.12c0,.69-.56,1.25-1.25,1.25ZM17.89,6.33c-.41,0-.75.34-.75.75v.12c0,.41.34.75.75.75h8.6c.41,0,.75-.34.75-.75v-.12c0-.41-.34-.75-.75-.75h-8.6Z"/>
    <path d="M6.81,17.41c-.14,0-.25-.11-.25-.25V7.97c0-.14.11-.25.25-.25s.25.11.25.25v9.18c0,.14-.11.25-.25.25Z"/>
    <path d="M10.75,12.81c-.06,0-.13-.02-.18-.07l-1.31-1.31c-.1-.1-.1-.26,0-.35s.25-.1.35,0l1.14,1.13,2.45-2.45c.1-.1.26-.1.35,0s.1.26,0,.35l-2.62,2.62s-.11.07-.18.07Z"/>
    <path d="M6.81,17.41c-.14,0-.25-.11-.25-.25,0-.95-.77-1.72-1.72-1.72H.91c-.5,0-.91-.41-.91-.91V6c0-.5.41-.91.91-.91h3.28c1.17,0,2.17.7,2.62,1.7.45-1,1.46-1.7,2.62-1.7h3.28c.5,0,.91.41.91.91v1.31c0,.14-.11.25-.25.25s-.25-.11-.25-.25v-1.31c0-.22-.18-.41-.41-.41h-3.28c-1.31,0-2.37,1.06-2.37,2.37,0,.14-.11.25-.25.25s-.25-.11-.25-.25c0-1.31-1.07-2.37-2.37-2.37H.91c-.22,0-.41.18-.41.41v8.53c0,.22.18.41.41.41h3.94c.85,0,1.6.49,1.97,1.2.37-.71,1.11-1.2,1.97-1.2h3.94c.22,0,.41-.18.41-.41v-.85c0-.14.11-.25.25-.25s.25.11.25.25v.85c0,.5-.41.91-.91.91h-3.94c-.95,0-1.72.77-1.72,1.72,0,.14-.11.25-.25.25Z"/>
  </g>
</svg>