<?xml version="1.0" encoding="UTF-8"?>
<svg id="Livello_2" data-name="Livello 2" xmlns="http://www.w3.org/2000/svg" viewBox="0 0 218 218">
  <defs>
    <style>
      .cls-1 {
        fill: #fff;
      }
    </style>
  </defs>
  <g id="Livello_1-2" data-name="Livello 1">
    <g>
      <path class="cls-1" d="M133,54c17.09,0,31,13.91,31,31v48c0,17.09-13.91,31-31,31h-48c-17.09,0-31-13.91-31-31v-48c0-17.09,13.91-31,31-31h48M133,45h-48c-22.09,0-40,17.91-40,40v48c0,22.09,17.91,40,40,40h48c22.09,0,40-17.91,40-40v-48c0-22.09-17.91-40-40-40h0Z"/>
      <path class="cls-1" d="M109,86.24c12.55,0,22.76,10.21,22.76,22.76s-10.21,22.76-22.76,22.76-22.76-10.21-22.76-22.76,10.21-22.76,22.76-22.76M109,77.24c-17.54,0-31.76,14.22-31.76,31.76s14.22,31.76,31.76,31.76,31.76-14.22,31.76-31.76-14.22-31.76-31.76-31.76h0Z"/>
      <path class="cls-1" d="M143.29,68.43c-4.23,0-7.66,3.43-7.66,7.54s3.43,7.54,7.66,7.54,7.54-3.43,7.54-7.54-3.31-7.54-7.54-7.54h0Z"/>
    </g>
    <path class="cls-1" d="M209,9v200H9V9h200M218,0H0v218h218V0h0Z"/>
  </g>
</svg>