<?xml version="1.0" encoding="UTF-8"?>
<svg id="Livello_2" data-name="Livello 2" xmlns="http://www.w3.org/2000/svg" viewBox="0 0 20.5 20.5">
  <g id="Livello_1-2" data-name="Livello 1">
    <g>
      <path d="M14.1,13.45s.1.05.15.05c.08,0,.15-.03.2-.1,1.39-1.85,1.39-4.45,0-6.3-.08-.11-.24-.13-.35-.05-.11.08-.13.24-.05.35,1.26,1.68,1.26,4.02,0,5.7-.08.11-.06.27.05.35Z"/>
      <path d="M17.44,16.79s.11.07.18.07.13-.02.18-.07c3.61-3.61,3.61-9.47,0-13.08-.1-.1-.26-.1-.35,0s-.1.26,0,.35c3.41,3.41,3.41,8.96,0,12.37-.1.1-.1.26,0,.35Z"/>
      <path d="M20.43,20.07l-10.93-10.93V2.95h0c0-.53-.43-.95-.96-.95h0c-.25,0-.49.1-.67.28l-2.62,2.62L.43.07C.33-.02.17-.02.07.07S-.02.33.07.43l4.82,4.82-.41.41c-.21.22-.51.34-.82.34H1.25C.56,6,0,6.56,0,7.25v6c0,.69.56,1.25,1.25,1.25h2.42c.3,0,.6.12.82.34l3.38,3.38c.19.19.43.28.68.28s.49-.09.67-.28c.18-.18.28-.42.28-.68v-7.69l10.57,10.57s.11.07.18.07.13-.02.18-.07c.1-.1.1-.26,0-.35ZM8.22,2.63c.09-.09.2-.13.32-.13h0c.25,0,.45.2.46.45v5.7l-3.4-3.4,2.62-2.62ZM9,17.55c0,.12-.05.24-.13.32-.18.18-.47.18-.64,0l-3.38-3.38c-.31-.31-.73-.49-1.17-.49H1.25c-.41,0-.75-.34-.75-.75v-6c0-.41.34-.75.75-.75h2.42c.44,0,.86-.18,1.17-.49l.41-.41,3.75,3.75v8.19Z"/>
    </g>
  </g>
</svg>