<?xml version="1.0" encoding="UTF-8"?>
<svg id="Livello_2" xmlns="http://www.w3.org/2000/svg" version="1.1" xmlns:xlink="http://www.w3.org/1999/xlink" viewBox="0 0 499.1 107">
  <!-- Generator: Adobe Illustrator 29.8.1, SVG Export Plug-In . SVG Version: 2.1.1 Build 2)  -->
  <defs>
    <style>
      .st0 {
        fill: url(#Sfumatura_senza_nome_5);
      }

      .st1 {
        fill: url(#Sfumatura_senza_nome_3);
      }

      .st2 {
        fill: url(#Sfumatura_senza_nome_2);
      }

      .st3 {
        fill: #0078c0;
      }

      .st4 {
        fill: url(#Sfumatura_senza_nome);
      }

      .st5 {
        fill: #f69f0d;
      }

      .st6 {
        fill: url(#Sfumatura_senza_nome_4);
      }
    </style>
    <linearGradient id="Sfumatura_senza_nome" data-name="Sfumatura senza nome" x1="-2202.5" y1="-4713.3" x2="-2201" y2="-4713.3" gradientTransform="translate(37926.9 81222.2) scale(17.2)" gradientUnits="userSpaceOnUse">
      <stop offset="0" stop-color="#0078c0"/>
      <stop offset=".3" stop-color="#0078c0"/>
      <stop offset="1" stop-color="#003d6c"/>
    </linearGradient>
    <linearGradient id="Sfumatura_senza_nome_2" data-name="Sfumatura senza nome 2" x1="-2161.2" y1="-4696.7" x2="-2159.7" y2="-4696.7" gradientTransform="translate(26632 57737.1) scale(12.3)" gradientUnits="userSpaceOnUse">
      <stop offset="0" stop-color="#f69f0d"/>
      <stop offset="0" stop-color="#f69f0d"/>
      <stop offset="1" stop-color="#ffde73"/>
    </linearGradient>
    <linearGradient id="Sfumatura_senza_nome_3" data-name="Sfumatura senza nome 3" x1="-2188.5" y1="-4709.3" x2="-2187" y2="-4709.3" gradientTransform="translate(33642.9 72204.5) scale(15.3)" gradientUnits="userSpaceOnUse">
      <stop offset="0" stop-color="#f69f0d"/>
      <stop offset="0" stop-color="#f69f0d"/>
      <stop offset="1" stop-color="#ffde73"/>
    </linearGradient>
    <linearGradient id="Sfumatura_senza_nome_4" data-name="Sfumatura senza nome 4" x1="-2269.1" y1="-4744.5" x2="-2267.7" y2="-4744.5" gradientTransform="translate(121213.8 253466.6) scale(53.4)" gradientUnits="userSpaceOnUse">
      <stop offset="0" stop-color="#f69f0d"/>
      <stop offset="0" stop-color="#f69f0d"/>
      <stop offset="1" stop-color="#ffde73"/>
    </linearGradient>
    <linearGradient id="Sfumatura_senza_nome_5" data-name="Sfumatura senza nome 5" x1="-2269.1" y1="-4744.7" x2="-2267.7" y2="-4744.7" gradientTransform="translate(121195.1 253439.3) scale(53.4)" gradientUnits="userSpaceOnUse">
      <stop offset="0" stop-color="#ee7201"/>
      <stop offset="0" stop-color="#ee7201"/>
      <stop offset="1" stop-color="#ffd618"/>
      <stop offset="1" stop-color="#ffd618"/>
    </linearGradient>
  </defs>
  <g id="Livello_1-2">
    <g>
      <g>
        <path id="path58" class="st4" d="M9.8,11.3c-1,0-2,.1-2.9.4h0C1.7,13.4-1.2,18.9.5,24H.5c7.2,23,7.2,47.3,0,70.4H.5c-1.6,5.1,1.2,10.6,6.4,12.2h0c1,.3,2,.4,2.9.4h0c4.1,0,8-2.7,9.3-6.8h0c8.4-26.8,8.4-55.2,0-82.1h0c-1.3-4.2-5.2-6.8-9.3-6.8h0"/>
        <path id="path80" class="st2" d="M67.6,15.1c0,5,4.1,9.1,9.1,9.1h0c5,0,9.1-4.1,9.1-9.1h0c0-5-4.1-9.1-9.1-9.1h0c-5,0-9.1,4.1-9.1,9.1"/>
        <path id="path102" class="st1" d="M90.3,11.3c0,6.3,5.1,11.3,11.3,11.3h0c6.2,0,11.3-5.1,11.3-11.3h0c0-6.2-5.1-11.3-11.3-11.3h0c-6.2,0-11.3,5.1-11.3,11.3"/>
        <path id="path124" class="st6" d="M49.5,17.6c-17.5,8.8-28.3,26.3-28.3,45.9h0c0,23.6,19.2,42.8,42.8,42.8h0c19.9,0,36-16.2,36-36h0c0-16.9-13.7-30.6-30.6-30.6h0c-14.5,0-26.2,11.8-26.2,26.3h0c0,4.9,4,8.9,8.9,8.9h0c4.9,0,7.1-5,8.3-9.3h0c1.3-4.6,4.4-8.1,9-8.1h0c7,0,12.8,5.7,12.8,12.8h0c0,10-8.2,18.2-18.2,18.2h0c-13.8,0-25-11.2-25-25h0c0-12.8,7.1-24.2,18.5-29.9h0c4.4-2.2,6.2-7.6,4-12h0c-1.6-3.1-4.7-4.9-8-4.9h0c-1.3,0-2.7.3-4,.9"/>
        <path id="path148" class="st0" d="M21.2,63.4c0,23.6,19.2,42.8,42.8,42.8h0c19.7,0,35.8-15.9,36-35.6h0c-6.1,11.3-18,19-31.7,19h0c-23.6,0-42.8-19.2-42.8-42.8h0c0-1.5,0-3,.2-4.5h0c-2.9,6.5-4.5,13.6-4.5,21"/>
      </g>
      <g>
        <path id="path174" class="st3" d="M127,17.9h9.8v18.5l15-18.5h12.1l-17.4,21.2,21,22.9h-12.7l-18-19.8v19.8h-9.8s0-44.1,0-44.1Z"/>
        <path id="path186" class="st3" d="M183.6,21.5c0-2.8,2.2-5,5-5s5,2.2,5,5-2.2,4.9-5,4.9-5-2.2-5-4.9M188.1,46.5c0-4.4-3-7.5-6.9-7.5s-6.9,3.1-6.9,7.5,3,7.5,6.9,7.5,6.9-3.1,6.9-7.5M168.8,21.5c0-2.8,2.2-5,5-5s4.9,2.2,4.9,5-2.2,4.9-4.9,4.9-5-2.2-5-4.9M164.8,46.5c0-9.1,7.4-16.2,16.4-16.2s16.3,7.1,16.3,16.2-7.4,16.2-16.3,16.2-16.3-7.1-16.3-16.2"/>
        <path id="path190" class="st3" d="M203.3,30.9h9.4v3.2c1.6-2.2,4.3-3.9,8-3.9s7.7,2.1,9.6,5.5c2-3.8,6.3-5.5,9.5-5.5,7.6,0,11.8,5.4,11.8,14.1v17.7h-9.4v-16.1c0-4.5-1.3-7.1-4.5-7.1s-5.6,2.5-5.6,8.1v15.1h-9.4v-16.1c0-4.5-1.3-7.1-4.5-7.1s-5.6,2.5-5.6,8.1v15.1h-9.4v-31.1h0Z"/>
        <path id="path194" class="st3" d="M259,30.9h9.4v3.2c1.6-2.2,4.3-3.9,8-3.9s7.7,2.1,9.6,5.5c2-3.8,6.3-5.5,9.5-5.5,7.6,0,11.8,5.4,11.8,14.1v17.7h-9.4v-16.1c0-4.5-1.3-7.1-4.5-7.1s-5.6,2.5-5.6,8.1v15.1h-9.4v-16.1c0-4.5-1.3-7.1-4.5-7.1s-5.6,2.5-5.6,8.1v15.1h-9.4v-31.1h0Z"/>
        <path id="path198" class="st3" d="M322.1,42.7h13.3c-1-3.7-4-5-6.5-5-3.7,0-6,2.1-6.8,5M312.7,46.4c0-9.3,7.1-16.2,16.5-16.2s17,6.1,16.6,18.4h-23.9c.4,3.2,2.8,6,7.8,6s5.2-1.2,6-2.9h9.8c-2,6.5-8.5,11-16.3,11s-16.5-6.8-16.5-16.3"/>
        <path id="path202" class="st3" d="M351.7,30.9h9.4v4.7c1-2.7,4-5,7.4-5s1.9,0,3.1.4v9.5c-1.4-.5-2.7-.8-4.2-.8-4,0-6.3,3.1-6.3,7.6v14.7h-9.4v-31.1h0Z"/>
        <path id="path204" class="st3" d="M376.7,15.4h9.4v46.6h-9.4V15.4Z"/>
        <path id="path206" class="st3" d="M393.8,30.9h9.4v31.1h-9.4v-31.1ZM392.6,20.9c0-3.2,2.7-5.8,5.8-5.8s5.9,2.6,5.9,5.8-2.6,5.8-5.9,5.8-5.8-2.6-5.8-5.8"/>
        <path id="path210" class="st3" d="M410.9,30.9h9.4v3.2c1.5-2.1,4.6-3.9,8.6-3.9,7.6,0,12.1,5.7,12.1,13.8v18h-9.4v-16.4c0-4.3-1.7-6.9-5-6.9s-6.3,2.6-6.3,8.1v15.1h-9.4v-31.1Z"/>
        <path id="path214" class="st3" d="M470.2,45.9c0-4.4-3.4-7.1-7.1-7.1s-7.1,2.8-7.1,7.1,3.4,7.1,7.1,7.1,7.1-2.8,7.1-7.1M447.8,63.7h9.1c1,2.9,3.1,4.2,6.3,4.2s6.2-2,6.2-6.4v-3.7c-1.4,2.1-4.7,3.8-8.5,3.8-8,0-14.5-7-14.5-15.7s6.6-15.7,14.5-15.7,7,1.7,8.5,3.8v-3.1h9.4v29.2c0,11.5-7.8,15.5-15.9,15.5s-14.7-5.2-15.2-11.9"/>
        <path id="path218" class="st3" d="M492.3,27c.4,0,.8-.3.8-.6s-.3-.6-.8-.6h-1v1.3h1ZM489.6,24.1h2.9c1.4,0,2.2,1,2.2,2.2s-.5,1.5-1.4,1.8l2.5,3.1h-2l-2.3-2.9h-.2v2.9h-1.7v-7.1h0ZM497.4,27.7c0-2.9-2.4-5.3-5.3-5.3s-5.3,2.4-5.3,5.3,2.4,5.3,5.3,5.3,5.3-2.4,5.3-5.3M485,27.7c0-3.9,3.2-7,7-7s7,3.2,7,7-3.2,7-7,7-7-3.2-7-7"/>
        <path id="path222" class="st5" d="M173.4,80.3h-4v-2.1h10.2v2.1h-4v11.5h-2.2v-11.5h0Z"/>
        <path id="path226" class="st5" d="M189.3,89.8c2.7,0,4.8-2.2,4.8-4.9s-2.1-4.9-4.8-4.9-4.8,2.2-4.8,4.9,2.1,4.9,4.8,4.9M189.3,92c-3.9,0-7-3.1-7-7.1s3.1-7.1,7-7.1,7,3.1,7,7.1-3.2,7.1-7,7.1"/>
        <path id="path230" class="st5" d="M205.1,89.7c2.9,0,4.9-2.1,4.9-4.7s-1.9-4.7-4.9-4.7h-1.9v9.4h1.9ZM200.9,78.1h4.2c4.1,0,7.2,3,7.2,6.8s-3.1,6.8-7.2,6.8h-4.2v-13.6h0Z"/>
        <path id="path234" class="st5" d="M223.8,86.2l-2.2-5.1-2.2,5.1h4.4ZM220.6,78.1h2l6,13.6h-2.3l-1.6-3.6h-6.1l-1.5,3.6h-2.3l5.9-13.6Z"/>
        <path id="path238" class="st5" d="M234.5,86l-5.2-7.9h2.6l3.7,5.6,3.7-5.6h2.7l-5.2,7.9v5.8h-2.2v-5.8h0Z"/>
        <path id="path242" class="st5" d="M251.9,78.1h8.1v2.1h-5.9v3.5h4.6v2.1h-4.6v5.8h-2.2s0-13.6,0-13.6Z"/>
        <path id="path246" class="st5" d="M270.2,89.8c2.7,0,4.8-2.2,4.8-4.9s-2.1-4.9-4.8-4.9-4.8,2.2-4.8,4.9,2.1,4.9,4.8,4.9M270.2,92c-3.9,0-7.1-3.1-7.1-7.1s3.1-7.1,7.1-7.1,7.1,3.1,7.1,7.1-3.1,7.1-7.1,7.1"/>
        <path id="path250" class="st5" d="M286.5,83.8c1.3,0,2.1-.6,2.1-1.8s-.8-1.8-2.1-1.8h-2.4v3.6h2.4ZM281.8,78.1h4.9c2.5,0,4.1,1.6,4.1,3.9s-1.1,3.2-3.1,3.6l5.1,6.1h-2.8l-5-6h-1v6h-2.2v-13.6h0Z"/>
        <path id="path254" class="st5" d="M304.6,80.3h-4v-2.1h10.2v2.1h-4v11.5h-2.2v-11.5h0Z"/>
        <path id="path258" class="st5" d="M320.4,89.8c2.7,0,4.8-2.2,4.8-4.9s-2.1-4.9-4.8-4.9-4.8,2.2-4.8,4.9,2.1,4.9,4.8,4.9M320.4,92c-3.9,0-7.1-3.1-7.1-7.1s3.1-7.1,7.1-7.1,7.1,3.1,7.1,7.1-3.1,7.1-7.1,7.1"/>
        <path id="path262" class="st5" d="M334.2,82v9.8h-2.2v-13.6h2.1l4.8,6.4,4.8-6.4h2.1v13.6h-2.3v-9.8l-4.6,6.2-4.6-6.2h0Z"/>
        <path id="path266" class="st5" d="M357.3,89.8c2.7,0,4.8-2.2,4.8-4.9s-2.1-4.9-4.8-4.9-4.8,2.2-4.8,4.9,2.1,4.9,4.8,4.9M357.3,92c-3.9,0-7.1-3.1-7.1-7.1s3.1-7.1,7.1-7.1,7.1,3.1,7.1,7.1-3.1,7.1-7.1,7.1"/>
        <path id="path270" class="st5" d="M373.5,83.8c1.3,0,2.1-.6,2.1-1.8s-.8-1.8-2.1-1.8h-2.4v3.6h2.4ZM368.8,78.1h4.9c2.5,0,4.1,1.6,4.1,3.9s-1.1,3.2-3.1,3.6l5.1,6.1h-2.8l-5-6h-1v6h-2.2v-13.6h0Z"/>
        <path id="path274" class="st5" d="M388,83.8c1.3,0,2.1-.6,2.1-1.8s-.8-1.8-2.1-1.8h-2.4v3.6h2.4ZM383.3,78.1h4.9c2.5,0,4.1,1.6,4.1,3.9s-1.1,3.2-3.1,3.6l5.1,6.1h-2.8l-5-6h-1v6h-2.2v-13.6h0Z"/>
        <path id="path278" class="st5" d="M403.6,89.8c2.7,0,4.8-2.2,4.8-4.9s-2.1-4.9-4.8-4.9-4.8,2.2-4.8,4.9,2.1,4.9,4.8,4.9M403.6,92c-3.9,0-7-3.1-7-7.1s3.1-7.1,7-7.1,7,3.1,7,7.1-3.1,7.1-7,7.1"/>
        <path id="path282" class="st5" d="M422.6,83.5l-3.2,8.3h-2.1l-3.5-13.6h2.4l2.5,9.9,3.9-10.1,3.9,10.1,2.5-9.9h2.4l-3.5,13.6h-2.1l-3.2-8.3h0Z"/>
      </g>
    </g>
  </g>
</svg>