<?xml version="1.0" encoding="UTF-8"?>
<svg id="Livello_2" data-name="Livello 2" xmlns="http://www.w3.org/2000/svg" viewBox="0 0 63.59 80.6">
  <defs>
    <style>
      .cls-1 {
        fill: #fff;
      }
    </style>
  </defs>
  <g id="Livello_1-2" data-name="Livello 1">
    <g>
      <path class="cls-1" d="M63.59.08h-12.2v-.08l-.28.08H.28l-.28-.08v80.6l.28-.08h50.83l.28.08v-.08h12.2V.08ZM50.89,2.35v77.59l-5.91-1.69-1.74-.5-17.3-4.95V7.81l17.31-4.96,1.74-.5,5.9-1.69v1.69ZM.5,79.94V.66l.13.04,5.76,1.65,1.75.5,17.3,4.96v64.99l-17.29,4.95-1.75.5-5.77,1.65-.13.04ZM25.7,7.36L9.95,2.85h31.49l-15.74,4.51ZM25.69,73.24l15.75,4.51H9.95l15.74-4.51ZM51.39,2.85h9.43v74.9h-9.43V2.85ZM49.37.58l-6.18,1.77H8.2L2.02.58h47.35ZM2.02,80.02l6.18-1.77h34.98l6.18,1.77H2.02ZM63.09,80.02h-11.7v-1.77h9.93V2.35h-9.93V.58h11.7v79.44Z"/>
      <path class="cls-1" d="M27.71,9.14v62.32l21.41,6.14v-32.93h1.03v-8.74h-1.03V3.01l-21.41,6.13ZM49.65,44.17h-1.82v-7.74h1.82v7.74ZM47.33,35.93v8.74h1.29v32.26l-20.41-5.84V9.52l20.41-5.85v32.26h-1.29Z"/>
      <path class="cls-1" d="M23.68,9.14L2.9,3.19l-.5-.14-.13-.04v74.59l.13-.04.5-.14,20.78-5.96V9.14ZM23.18,71.09l-20.28,5.8-.13.04V3.67l.13.04,20.28,5.81v61.57Z"/>
    </g>
  </g>
</svg>