<?xml version="1.0" encoding="UTF-8"?>
<svg id="Livello_2" data-name="Livello 2" xmlns="http://www.w3.org/2000/svg" viewBox="0 0 218 218">
  <defs>
    <style>
      .cls-1 {
        fill: #fff;
      }
    </style>
  </defs>
  <g id="Livello_1-2" data-name="Livello 1">
    <g>
      <path class="cls-1" d="M115.69,99.08c1.77-1.99,3.24-4.02,5.06-5.73,5.6-5.28,12.23-7.94,19.96-7.88,4.25.04,8.45.34,12.55,1.53,9.37,2.71,14.82,9.16,17.42,18.32,1.95,6.87,2.31,13.92,2.32,20.99.03,14.92-.04,29.84-.01,44.76,0,1.4-.39,1.76-1.76,1.75-7.69-.06-15.37-.07-23.06,0-1.35.01-1.64-.41-1.64-1.69.04-14.2.05-28.39,0-42.59-.01-3.56-.24-7.11-1.24-10.57-1.84-6.37-6.4-9.62-13.07-9.27-9.11.48-13.85,4.99-15.02,14.26-.28,2.21-.41,4.43-.41,6.66.01,13.81-.01,27.61.04,41.42,0,1.38-.34,1.78-1.75,1.77-7.74-.07-15.48-.06-23.23,0-1.24,0-1.6-.33-1.6-1.58.03-27.33.04-54.67,0-82,0-1.35.44-1.67,1.72-1.66,7.35.05,14.7.06,22.06,0,1.35-.01,1.7.43,1.67,1.71-.08,3.27-.02,6.53-.02,9.8Z"/>
      <path class="cls-1" d="M73.57,130.32c0,13.52-.02,27.05.03,40.57,0,1.5-.37,1.96-1.92,1.94-7.68-.08-15.37-.07-23.05-.01-1.23,0-1.6-.3-1.6-1.57.04-27.38.03-54.76,0-82.14,0-1.13.27-1.54,1.48-1.53,7.79.05,15.59.07,23.38,0,1.5-.01,1.7.57,1.7,1.85-.04,13.63-.02,27.27-.02,40.9Z"/>
      <path class="cls-1" d="M75.69,60.44c0,8.49-6.88,15.41-15.35,15.41-8.36,0-15.31-6.92-15.34-15.28-.03-8.45,6.92-15.41,15.37-15.4,8.39,0,15.31,6.9,15.32,15.27Z"/>
    </g>
    <path class="cls-1" d="M209,9v200H9V9h200M218,0H0v218h218V0h0Z"/>
  </g>
</svg>