<?xml version="1.0" encoding="UTF-8"?>
<svg id="Livello_2" data-name="Livello 2" xmlns="http://www.w3.org/2000/svg" viewBox="0 0 19.99 19.99">
  <g id="Livello_1-2" data-name="Livello 1">
    <g>
      <path d="M16.35,7.26c.14,0,.25-.11.25-.25s-.11-.25-.25-.25h-5.47c-.14,0-.25.11-.25.25v5.97c0,.14.11.25.25.25h5.47c.14,0,.25-.11.25-.25s-.11-.25-.25-.25h-5.22v-2.48h3.85c.14,0,.25-.11.25-.25s-.11-.25-.25-.25h-3.85v-2.48h5.22Z"/>
      <path d="M9.11,7.26c.14,0,.25-.11.25-.25s-.11-.25-.25-.25H3.64c-.14,0-.25.11-.25.25v5.97c0,.14.11.25.25.25h5.47c.14,0,.25-.11.25-.25s-.11-.25-.25-.25H3.89v-5.47h5.22Z"/>
      <path d="M9.99,0C4.48,0,0,4.48,0,9.99s4.48,9.99,9.99,9.99,9.99-4.48,9.99-9.99S15.5,0,9.99,0ZM9.99,19.49C4.76,19.49.5,15.23.5,9.99S4.76.5,9.99.5s9.49,4.26,9.49,9.49-4.26,9.49-9.49,9.49Z"/>
    </g>
  </g>
</svg>