<?xml version="1.0" encoding="UTF-8"?>
<svg id="Livello_2" data-name="Livello 2" xmlns="http://www.w3.org/2000/svg" viewBox="0 0 19.16 20.27">
  <g id="Livello_1-2" data-name="Livello 1">
    <g>
      <path d="M16.83,13.98H2.32c-1.28,0-2.32-1.04-2.32-2.32V0h19.16v11.65c0,1.28-1.04,2.32-2.32,2.32ZM.5.5v11.15c0,1.01.82,1.82,1.82,1.82h14.51c1,0,1.82-.82,1.82-1.82V.5H.5Z"/>
      <path d="M16.89,11.71H2.27V2.27h14.62v9.44ZM2.77,11.21h13.62V2.77H2.77v8.44Z"/>
    </g>
    <polygon points="14.58 20.27 9.58 15.26 4.57 20.27 4.22 19.92 9.58 14.56 14.94 19.92 14.58 20.27"/>
    <polygon points="11.58 20.27 9.58 18.27 7.58 20.27 7.23 19.92 9.58 17.56 11.93 19.92 11.58 20.27"/>
  </g>
</svg>