<?xml version="1.0" encoding="UTF-8"?>
<svg id="Livello_2" data-name="Livello 2" xmlns="http://www.w3.org/2000/svg" viewBox="0 0 361.68 77.98">
  <defs>
    <style>
      .cls-1 {
        fill: #3a3535;
      }
    </style>
  </defs>
  <g id="Livello_1-2" data-name="Livello 1">
    <g>
      <path class="cls-1" d="M64.77,0l-6.25,17.77-4.03,11.46c-1.17,3.27-2.57,7.95-4.44,14.38l-2.81,9.71h-.7c-4.56-15.43-5.73-19.06-7.48-24.2l-4.1-11.34L28.53,0H0v77.98h17.77V15.55l.76,2.22,20.64,60.21h15.78l16.98-50.28V0h-7.16Z"/>
      <rect class="cls-1" x="76.11" y="27.71" width="17.77" height="50.28"/>
      <path class="cls-1" d="M133.99,0h-30.17v77.98h17.66V15.43c4.91,12.51,27.12,62.55,27.12,62.55h8.19v-25.8L133.99,0Z"/>
      <path class="cls-1" d="M282.83,77.98h-17.77s0-32.74,0-32.74c0-6.2,0-29.93,0-29.93l-21.16,62.67h-15.78s-21.4-62.43-21.4-62.43c0,0,0,23.97,0,29.7v32.74s-17.77,0-17.77,0V0s28.53,0,28.53,0l10.52,29.11c1.75,5.14,2.92,8.77,7.48,24.2h.7s2.81-9.7,2.81-9.7c1.87-6.43,3.27-11.11,4.44-14.38L253.71,0h29.11s0,77.98,0,77.98Z"/>
      <path class="cls-1" d="M309.07,63.84l-4.24,14.15h-18.34S310.68,0,310.68,0h26.47s24.53,77.98,24.53,77.98h-18.11s-4.36-14.15-4.36-14.15h-30.14ZM324.2,13.56l-11.23,37.06h22.58s-11.35-37.06-11.35-37.06Z"/>
      <rect class="cls-1" x="161.23" y="27.71" width="17.77" height="50.28"/>
      <rect class="cls-1" x="161.23" y="0" width="17.77" height="17.77"/>
      <rect class="cls-1" x="76.11" y="0" width="17.77" height="17.77"/>
    </g>
  </g>
</svg>