<?xml version="1.0" encoding="UTF-8"?>
<svg id="Livello_2" data-name="Livello 2" xmlns="http://www.w3.org/2000/svg" viewBox="0 0 26.48 20.34">
  <g id="Livello_1-2" data-name="Livello 1">
    <path d="M16.49,15.3c-1.78,0-2.61-.69-3.41-1.36-.77-.64-1.49-1.24-3.09-1.24s-2.29.6-3.09,1.24c-.83.67-1.69,1.35-3.4,1.35s-2.61-.69-3.41-1.36c-.11-.09-.12-.25-.03-.35.09-.11.25-.12.35-.03.77.64,1.49,1.24,3.09,1.24s2.29-.6,3.09-1.24c.83-.67,1.69-1.35,3.4-1.35s2.61.69,3.41,1.36c.77.64,1.49,1.24,3.09,1.24s2.29-.6,3.09-1.24c.83-.67,1.69-1.35,3.4-1.35s2.61.69,3.41,1.36c.11.09.12.25.03.35-.09.11-.25.12-.35.03-.77-.64-1.49-1.24-3.09-1.24s-2.29.6-3.09,1.24c-.83.67-1.69,1.35-3.4,1.35Z"/>
    <path d="M16.49,11.72c-1.78,0-2.61-.69-3.41-1.36-.77-.64-1.49-1.24-3.09-1.24s-2.29.6-3.09,1.24c-.83.67-1.69,1.35-3.4,1.35s-2.61-.69-3.41-1.36c-.11-.09-.12-.25-.03-.35.09-.11.25-.12.35-.03.77.64,1.49,1.24,3.09,1.24s2.29-.6,3.09-1.24c.83-.67,1.69-1.35,3.4-1.35s2.61.69,3.41,1.36c.77.64,1.49,1.24,3.09,1.24s2.29-.6,3.09-1.24c.83-.67,1.69-1.35,3.4-1.35s2.61.69,3.41,1.36c.11.09.12.25.03.35-.09.11-.25.12-.35.03-.77-.64-1.49-1.24-3.09-1.24s-2.29.6-3.09,1.24c-.83.67-1.69,1.35-3.4,1.35Z"/>
    <path d="M16.49,8.14c-1.78,0-2.61-.69-3.41-1.36-.77-.64-1.49-1.24-3.09-1.24s-2.29.6-3.09,1.24c-.83.67-1.69,1.35-3.4,1.35S.89,7.45.09,6.78c-.11-.09-.12-.25-.03-.35.09-.11.25-.12.35-.03.77.64,1.49,1.24,3.09,1.24s2.29-.6,3.09-1.24c.83-.67,1.69-1.35,3.4-1.35s2.61.69,3.41,1.36c.77.64,1.49,1.24,3.09,1.24s2.29-.6,3.09-1.24c.83-.67,1.69-1.35,3.4-1.35s2.61.69,3.41,1.36c.11.09.12.25.03.35-.09.11-.25.12-.35.03-.77-.64-1.49-1.24-3.09-1.24s-2.29.6-3.09,1.24c-.83.67-1.69,1.35-3.4,1.35Z"/>
    <path d="M13.25,20.34c-3.22,0-6.18-1.48-8.12-4.05-.08-.11-.06-.27.05-.35s.27-.06.35.05c1.84,2.45,4.65,3.85,7.72,3.85,3.57,0,6.83-1.95,8.5-5.1.07-.12.22-.17.34-.1.12.06.17.22.1.34-1.76,3.31-5.18,5.37-8.94,5.37Z"/>
    <path d="M4.48,5.75s-.08,0-.12-.03c-.12-.06-.17-.22-.1-.34C6.04,2.06,9.48,0,13.25,0c3.23,0,6.19,1.48,8.12,4.07.08.11.06.27-.05.35-.11.08-.27.06-.35-.05-1.83-2.46-4.65-3.86-7.72-3.86-3.58,0-6.86,1.96-8.55,5.12-.05.08-.13.13-.22.13Z"/>
  </g>
</svg>