<?xml version="1.0" encoding="UTF-8"?>
<svg id="Livello_2" data-name="Livello 2" xmlns="http://www.w3.org/2000/svg" viewBox="0 0 76.58 90.08">
  <defs>
    <style>
      .cls-1 {
        fill: #fff;
      }
    </style>
  </defs>
  <g id="Livello_1-2" data-name="Livello 1">
    <g>
      <path class="cls-1" d="M12.37,4.82L.34.14l-.34-.14v90.08l12.39-4.82h64.19V4.82H12.37ZM.5,89.35V.74l10.49,4.08,1.28.5,4.55,1.77,1.29.5,37.35,14.53v45.85l-37.33,14.52-1.28.5-4.55,1.77-1.29.5-10.51,4.09ZM55.96,68.31V21.77L19.5,7.59h54.31v74.9H19.51l36.45-14.18ZM76.08,84.76H13.68l4.54-1.77h56.09V7.09H18.21l-4.55-1.77h62.42v79.44Z"/>
      <path class="cls-1" d="M53.7,66.76v-17.35h.94v-8.74h-.94v-17.35L13.25,7.59l-1.28-.5-4.55-1.77-1.29-.5-3.52-1.37-.34-.13v83.44l3.86-1.5,1.28-.5,4.55-1.77,1.29-.5,40.45-15.73ZM54.14,48.91h-1.83v-7.74h1.83v7.74ZM10.59,82.99l-4.55,1.77-1.29.5-1.98.77V4.05l1.98.77,1.28.5,4.55,1.77,1.29.5,41.33,16.08v17h-1.39v8.74h1.39v17.01l-41.33,16.07-1.28.5Z"/>
    </g>
  </g>
</svg>