<?xml version="1.0" encoding="UTF-8"?>
<svg id="Livello_2" data-name="Livello 2" xmlns="http://www.w3.org/2000/svg" viewBox="0 0 30.07 20.34">
  <g id="Livello_1-2" data-name="Livello 1">
    <g>
      <path d="M17.36,12.55V2.24C17.36,1,16.36,0,15.13,0s-2.23,1-2.23,2.23v10.31c-.58.36-1.07.87-1.42,1.47-.56.98-.71,2.11-.42,3.2.29,1.09.99,2,1.96,2.56.66.38,1.39.56,2.1.56,1.46,0,2.88-.76,3.66-2.11.56-.98.71-2.11.42-3.2-.28-1.04-.93-1.92-1.84-2.49ZM18.35,17.98c-1.02,1.77-3.3,2.39-5.08,1.36-.86-.5-1.47-1.3-1.73-2.26-.26-.96-.12-1.96.37-2.82.33-.56.8-1.04,1.36-1.36.08-.04.12-.13.12-.22V2.24c0-.96.78-1.73,1.73-1.73s1.73.78,1.73,1.73v10.45c0,.09.05.17.12.22.86.5,1.47,1.3,1.73,2.26.26.96.12,1.96-.37,2.82Z"/>
      <path d="M10.17,6.94h-1.83l-1.11-2.23,1.18-2.37c.06-.12.01-.27-.11-.34-.12-.06-.27-.01-.34.11l-1.02,2.03-1.51-3.02c-.06-.12-.21-.17-.33-.11-.12.06-.17.21-.11.34l1.51,3.02-2.24-.41c-.15-.02-.27.07-.29.2-.02.14.07.27.2.29l2.6.47,1.13,2.26-1.36,2.73h-2.7l-1.41-1.88c-.08-.11-.24-.13-.35-.05-.11.08-.13.24-.05.35l1.19,1.58H.25c-.14,0-.25.11-.25.25s.11.25.25.25h2.97l-1.19,1.58c-.08.11-.06.27.05.35.04.03.1.05.15.05.08,0,.15-.03.2-.1l1.41-1.88h2.7l1.36,2.73-1.13,2.26-2.61.47c-.14.02-.23.15-.2.29.03.14.15.22.29.2l2.24-.41-1.51,3.02c-.06.12-.01.27.11.34.04.02.07.03.11.03.09,0,.18-.05.22-.14l1.51-3.02,1.02,2.03c.04.09.13.14.22.14.04,0,.08,0,.11-.03.12-.06.17-.21.11-.34l-1.18-2.37,1.11-2.23h.43c.14,0,.25-.11.25-.25s-.11-.25-.25-.25h-.43l-1.36-2.73,1.36-2.73h1.83c.14,0,.25-.11.25-.25s-.11-.25-.25-.25Z"/>
      <path d="M19.9,4.97c.14,0,.25-.11.25-.25V.25c0-.14-.11-.25-.25-.25s-.25.11-.25.25v4.47c0,.14.11.25.25.25Z"/>
      <path d="M22.88,7.18c-.8-.8-1.86-1.23-2.98-1.23h0c-.14,0-.25.11-.25.25s.11.25.25.25h0c.99,0,1.92.39,2.63,1.09.7.7,1.09,1.64,1.09,2.63,0,1.46-.86,2.79-2.19,3.39-.13.06-.18.2-.12.33.04.09.13.15.23.15.03,0,.07,0,.1-.02,1.51-.68,2.49-2.19,2.49-3.85,0-1.13-.44-2.19-1.24-2.98Z"/>
      <path d="M29.82,9.92h-4.43c-.14,0-.25.11-.25.25s.11.25.25.25h4.43c.14,0,.25-.11.25-.25s-.11-.25-.25-.25Z"/>
      <path d="M23.87,6.45c.06,0,.13-.02.18-.07l3.04-3.04c.1-.1.1-.26,0-.35s-.26-.1-.35,0l-3.04,3.04c-.1.1-.1.26,0,.35.05.05.11.07.18.07Z"/>
      <path d="M24.05,13.96c-.1-.1-.26-.1-.35,0s-.1.26,0,.35l3.04,3.04s.11.07.18.07.13-.02.18-.07c.1-.1.1-.26,0-.35l-3.04-3.04Z"/>
    </g>
  </g>
</svg>