<?xml version="1.0" encoding="UTF-8"?>
<svg id="Livello_2" data-name="Livello 2" xmlns="http://www.w3.org/2000/svg" viewBox="0 0 18.36 20.34">
  <g id="Livello_1-2" data-name="Livello 1">
    <path d="M16.12,16.37h-.99c-1.23,0-2.23-1-2.23-2.23v-2.98c0-1.23,1-2.23,2.23-2.23h2.72c-.13-4.67-3.97-8.43-8.67-8.43S.64,4.26.5,8.93h2.72c1.23,0,2.23,1,2.23,2.23v2.98c0,1.23-1,2.23-2.23,2.23h-.99c-1.23,0-2.23-1-2.23-2.23v-4.96C0,4.12,4.12,0,9.18,0s9.18,4.12,9.18,9.18v4.96c0,1.23-1,2.23-2.23,2.23ZM15.13,9.43c-.96,0-1.73.78-1.73,1.73v2.98c0,.96.78,1.73,1.73,1.73h.99c.96,0,1.73-.78,1.73-1.73v-4.71h-2.73ZM.5,9.43v4.71c0,.96.78,1.73,1.73,1.73h.99c.96,0,1.73-.78,1.73-1.73v-2.98c0-.96-.78-1.73-1.73-1.73H.5Z"/>
    <path d="M14.14,20.34h-4.96c-.14,0-.25-.11-.25-.25s.11-.25.25-.25h4.96c2.05,0,3.72-1.67,3.72-3.72v-1.98c0-.14.11-.25.25-.25s.25.11.25.25v1.98c0,2.33-1.89,4.22-4.22,4.22Z"/>
  </g>
</svg>