<?xml version="1.0" encoding="UTF-8"?>
<svg id="Livello_2" data-name="Livello 2" xmlns="http://www.w3.org/2000/svg" viewBox="0 0 360.81 126.18">
  <g id="Livello_1-2" data-name="Livello 1">
    <g>
      <path d="M9.34,112.25v1.74h-4.2v8.01c0,.95.18,1.59.53,1.93.35.34.88.51,1.59.51s1.43-.17,2.12-.52l.09,1.77c-.77.33-1.69.49-2.77.49-.97,0-1.82-.27-2.54-.81-.72-.54-1.07-1.48-1.07-2.81v-8.56H0v-1.74h3.08v-3.83h2.05v3.83h4.2Z"/>
      <path d="M15.7,125.83v-21.93h2.05v10.53h.06c.46-.73,1.14-1.34,2.05-1.81.91-.47,1.86-.71,2.83-.71,1.83,0,3.2.46,4.11,1.38.91.92,1.37,2.23,1.37,3.93v8.62h-2.05v-7.51c0-1.59-.29-2.76-.87-3.53-.58-.77-1.61-1.15-3.08-1.15-.17,0-.38.02-.64.06-.26.04-.63.16-1.1.36-.48.2-.9.48-1.26.81-.36.34-.69.85-.98,1.55s-.44,1.51-.44,2.44v6.96h-2.05Z"/>
      <path d="M50.13,119.56h-12.14c.13,1.37.69,2.53,1.7,3.47,1.01.94,2.23,1.41,3.66,1.41,1.02,0,1.94-.23,2.77-.68.83-.45,1.46-1.01,1.9-1.67l1.59,1.22c-1.62,1.92-3.71,2.87-6.26,2.87-2.16,0-3.96-.68-5.39-2.03-1.43-1.35-2.15-3.05-2.15-5.11s.71-3.73,2.12-5.09c1.41-1.37,3.15-2.05,5.23-2.05,2.13.02,3.83.67,5.09,1.96,1.25,1.29,1.88,2.9,1.88,4.83v.87ZM38.05,118h9.84c0-1.31-.43-2.37-1.28-3.16-.85-.79-2.01-1.19-3.46-1.19-1.33,0-2.51.44-3.55,1.33-1.04.89-1.56,1.89-1.56,3.02"/>
      <polygon points="74.79 112.25 71.43 123.28 71.36 123.28 67.47 112.25 65.36 112.25 61.46 123.28 61.4 123.28 58.04 112.25 55.61 112.25 60.22 125.83 62.52 125.83 66.38 114.69 66.45 114.69 70.3 125.83 72.61 125.83 77.21 112.25 74.79 112.25"/>
      <rect x="83.91" y="112.25" width="2.05" height="13.58"/>
      <path d="M94.32,112.25h2.12c.06.48.09,1.21.09,2.18h.06c.46-.73,1.14-1.34,2.05-1.81.91-.47,1.85-.71,2.83-.71,1.82,0,3.19.46,4.11,1.38.91.92,1.37,2.23,1.37,3.93v8.62h-2.05v-7.51c0-1.59-.29-2.76-.87-3.53-.58-.77-1.61-1.15-3.08-1.15-.17,0-.38.02-.64.06-.26.04-.63.16-1.1.36-.48.2-.9.48-1.26.81-.37.34-.69.85-.98,1.55-.29.7-.44,1.51-.44,2.44v6.96h-2.05v-10.59c0-.35-.05-1.35-.15-2.99"/>
      <path d="M129.87,103.9v21.93h-2.05v-2.26h-.06c-.62.85-1.46,1.5-2.51,1.95-1.05.44-2.1.67-3.16.67-2.26,0-4.12-.68-5.57-2.03-1.45-1.35-2.18-3.05-2.18-5.1s.73-3.75,2.18-5.11c1.45-1.35,3.31-2.03,5.57-2.03,1.06,0,2.11.22,3.16.67,1.05.45,1.88,1.09,2.51,1.95h.06v-10.62h2.05ZM118.09,115.18c-1.01,1.02-1.51,2.31-1.51,3.86s.5,2.83,1.51,3.86c1.01,1.03,2.34,1.54,4,1.54s3.07-.52,4.17-1.55c1.1-1.04,1.65-2.32,1.65-3.84s-.55-2.81-1.65-3.85c-1.1-1.03-2.49-1.55-4.17-1.55s-3,.51-4,1.54"/>
      <path d="M150.45,113.94c1.45,1.35,2.18,3.06,2.18,5.11s-.73,3.75-2.18,5.11c-1.45,1.35-3.31,2.03-5.57,2.03s-4.09-.68-5.54-2.03c-1.45-1.35-2.18-3.05-2.18-5.11s.73-3.75,2.18-5.11c1.45-1.35,3.3-2.03,5.54-2.03s4.12.68,5.57,2.03M148.88,122.9c1.01-1.03,1.51-2.31,1.51-3.86s-.51-2.83-1.51-3.86c-1.01-1.02-2.34-1.54-4-1.54s-2.96.51-3.97,1.54c-1.01,1.03-1.51,2.31-1.51,3.86s.51,2.83,1.51,3.86c1.01,1.03,2.33,1.54,3.97,1.54s2.99-.51,4-1.54"/>
      <polygon points="177.29 112.25 173.93 123.28 173.87 123.28 169.98 112.25 167.86 112.25 163.97 123.28 163.9 123.28 160.54 112.25 158.11 112.25 162.72 125.83 165.02 125.83 168.89 114.69 168.95 114.69 172.8 125.83 175.11 125.83 179.72 112.25 177.29 112.25"/>
      <path d="M185.95,125.83v-10.56c0-.31-.05-1.32-.15-3.02h2.21v2.06h.06c.48-.76,1.15-1.35,2.02-1.77.87-.43,1.76-.64,2.68-.64,2.3,0,3.85.94,4.64,2.81.41-.85,1.07-1.53,1.96-2.04.89-.51,1.84-.77,2.83-.77,1.82,0,3.19.46,4.11,1.38.91.92,1.37,2.23,1.37,3.93v8.62h-2.05v-7.92c0-1.45-.27-2.52-.81-3.22-.54-.7-1.49-1.05-2.86-1.05s-2.45.48-3.11,1.42c-.67.95-1,2.13-1,3.54v7.23h-2.05v-7.92c0-1.45-.27-2.52-.81-3.22-.54-.7-1.49-1.05-2.86-1.05-.19,0-.4.02-.64.06-.24.04-.58.16-1.01.36-.44.2-.82.48-1.17.81-.34.34-.64.85-.9,1.55-.26.7-.39,1.51-.39,2.44v6.96h-2.05Z"/>
      <path d="M228.57,113.94c1.45,1.35,2.18,3.06,2.18,5.11s-.73,3.75-2.18,5.11c-1.45,1.35-3.31,2.03-5.57,2.03s-4.09-.68-5.54-2.03c-1.45-1.35-2.18-3.05-2.18-5.11s.73-3.75,2.18-5.11c1.45-1.35,3.3-2.03,5.54-2.03s4.12.68,5.57,2.03M226.99,122.9c1.01-1.03,1.51-2.31,1.51-3.86s-.51-2.83-1.51-3.86c-1.01-1.02-2.34-1.54-4-1.54s-2.96.51-3.97,1.54c-1.01,1.03-1.51,2.31-1.51,3.86s.51,2.83,1.51,3.86c1.01,1.03,2.33,1.54,3.97,1.54s2.99-.51,4-1.54"/>
      <path d="M245.57,112.25v1.74h-4.2v8.01c0,.95.18,1.59.53,1.93.35.34.88.51,1.59.51s1.43-.17,2.12-.52l.09,1.77c-.77.33-1.69.49-2.77.49-.97,0-1.82-.27-2.54-.81-.72-.54-1.07-1.48-1.07-2.81v-8.56h-3.08v-1.74h3.08v-3.83h2.05v3.83h4.2Z"/>
      <rect x="252.39" y="112.25" width="2.05" height="13.58"/>
      <polygon points="272.94 112.25 268.3 123.69 268.24 123.69 263.6 112.25 261.14 112.25 267.06 125.83 269.36 125.83 275.27 112.25 272.94 112.25"/>
      <path d="M295.08,119.56h-12.14c.13,1.37.69,2.53,1.7,3.47,1.01.94,2.23,1.41,3.66,1.41,1.02,0,1.94-.23,2.77-.68.83-.45,1.46-1.01,1.9-1.67l1.59,1.22c-1.62,1.92-3.71,2.87-6.26,2.87-2.16,0-3.96-.68-5.39-2.03-1.43-1.35-2.15-3.05-2.15-5.11s.71-3.73,2.12-5.09c1.41-1.37,3.15-2.05,5.23-2.05,2.14.02,3.83.67,5.09,1.96,1.25,1.29,1.88,2.9,1.88,4.83v.87ZM283,118h9.84c0-1.31-.43-2.37-1.28-3.16-.85-.79-2.01-1.19-3.46-1.19-1.33,0-2.51.44-3.55,1.33-1.04.89-1.56,1.89-1.56,3.02"/>
      <path d="M37.41,56.92v38.57h-9.52v-6.19h-.17c-2.28,4.77-6.38,7.15-12.28,7.15-5.01,0-8.7-1.43-11.06-4.3-2.37-2.86-3.55-6.5-3.55-10.89v-24.35h10.02v19.53c0,1.39.07,2.61.21,3.66.14,1.04.42,2.22.83,3.53.42,1.31,1.16,2.33,2.22,3.05,1.06.72,2.42,1.08,4.09,1.08,3.12,0,5.43-.92,6.93-2.77,1.51-1.84,2.26-4.19,2.26-7.03v-21.05h10.03Z"/>
      <path d="M48.77,95.49v-38.57h9.52v6.19h.16c2.29-4.77,6.38-7.15,12.29-7.15,5.01,0,8.7,1.43,11.06,4.3,2.37,2.87,3.55,6.5,3.55,10.88v24.35h-10.02v-19.53c0-1.39-.07-2.61-.21-3.65-.14-1.05-.42-2.22-.83-3.54-.42-1.31-1.16-2.33-2.22-3.05-1.06-.73-2.42-1.09-4.09-1.09-3.12,0-5.43.92-6.93,2.77-1.51,1.85-2.26,4.19-2.26,7.03v21.05h-10.02Z"/>
      <path d="M122.03,95.49v-30.37h-8.27v-8.19h8.27v-5.47c0-5.89,1.04-10.31,3.13-13.25,2.09-2.95,6.03-4.42,11.82-4.42,2.28,0,4.4.19,6.35.56l-.67,8.19c-1.67-.37-3.06-.56-4.18-.56-2.56,0-4.27.7-5.14,2.09-.86,1.39-1.3,3.35-1.3,5.87v6.99h9.27v8.19h-9.27v30.37h-10.02Z"/>
      <path d="M152.11,90.79c-4.17-3.78-6.27-8.64-6.27-14.58s2.09-10.81,6.27-14.58c4.18-3.78,9.36-5.66,15.54-5.66s11.36,1.89,15.54,5.66c4.18,3.78,6.26,8.64,6.26,14.58s-2.09,10.81-6.26,14.58c-4.18,3.78-9.36,5.66-15.54,5.66s-11.36-1.89-15.54-5.66M159.08,68.05c-2.14,2.28-3.21,5-3.21,8.15s1.07,5.88,3.21,8.16c2.14,2.28,5,3.42,8.56,3.42s6.41-1.14,8.56-3.42c2.14-2.28,3.21-5,3.21-8.16s-1.07-5.88-3.21-8.15c-2.15-2.28-5-3.42-8.56-3.42s-6.42,1.14-8.56,3.42"/>
      <path d="M198.81,95.49v-38.57h10.02v6.11h.17c1.11-2.2,2.72-3.93,4.8-5.19,2.09-1.26,4.44-1.89,7.06-1.89,1,0,2.2.19,3.59.56v9.32c-2.01-.48-3.63-.72-4.85-.72-2.17,0-4.04.39-5.6,1.17s-2.67,1.76-3.34,2.93c-.67,1.18-1.14,2.24-1.42,3.17-.28.94-.42,1.76-.42,2.45v20.65h-10.02Z"/>
      <path d="M232.39,95.49v-38.57h9.52v6.03h.16c2.28-4.66,6.38-6.99,12.28-6.99,6.29,0,10.47,2.38,12.53,7.15,2.84-4.77,7.24-7.15,13.2-7.15,5.07,0,8.74,1.5,11.03,4.5,2.29,3,3.42,7.02,3.42,12.05v22.98h-10.02v-21.85c0-6-2.48-9-7.44-9-2.89,0-5.05.97-6.47,2.89-1.42,1.93-2.13,4.29-2.13,7.07v20.89h-10.02v-22.98c0-5.25-2.29-7.87-6.85-7.87-3.12,0-5.43.92-6.94,2.77-1.5,1.85-2.26,4.19-2.26,7.03v21.05h-10.02Z"/>
      <rect x="96.89" y="56.92" width="10.03" height="38.57"/>
      <rect x="276.79" y="23.91" width="24.24" height="23.92"/>
      <rect x="306.69" y="23.91" width="24.24" height="23.92"/>
      <rect x="336.57" width="24.24" height="23.92"/>
      <path d="M298.07,110.22v1.1h.6c.15,0,.27,0,.36-.01s.18-.03.28-.06c.1-.03.18-.09.23-.17.05-.08.07-.19.07-.31,0-.11-.02-.2-.06-.28-.04-.08-.1-.13-.19-.17-.08-.03-.17-.06-.25-.07-.08-.01-.18-.02-.29-.02h-.76ZM297.57,113.21v-3.42h1.29c.42,0,.73.08.93.24.2.16.3.41.3.75,0,.29-.08.51-.25.66-.17.15-.39.24-.68.27l1.01,1.51h-.53l-.96-1.47h-.63v1.47h-.49ZM296.14,111.5c0,.7.25,1.3.74,1.78s1.1.73,1.82.73,1.32-.24,1.82-.73c.5-.49.74-1.09.74-1.81s-.25-1.31-.74-1.79c-.5-.48-1.1-.73-1.82-.73s-1.32.24-1.82.73c-.5.49-.74,1.09-.74,1.81M295.65,111.5c0-.84.3-1.55.9-2.12.6-.57,1.31-.85,2.16-.85s1.56.28,2.16.85c.6.56.9,1.26.9,2.09s-.3,1.55-.9,2.12c-.6.57-1.32.85-2.16.85s-1.56-.28-2.16-.85c-.6-.57-.9-1.26-.9-2.09"/>
    </g>
  </g>
</svg>