<?xml version="1.0" encoding="UTF-8"?>
<svg id="Livello_2" data-name="Livello 2" xmlns="http://www.w3.org/2000/svg" viewBox="0 0 218 218">
  <defs>
    <style>
      .cls-1, .cls-2 {
        fill: #fff;
      }

      .cls-2 {
        fill-rule: evenodd;
      }
    </style>
  </defs>
  <g id="Livello_1-2" data-name="Livello 1">
    <path class="cls-2" d="M132.53,118.21c-2.62-1.56-6.02-3.31-9.1-2.05-2.36.97-3.87,4.67-5.4,6.56-.79.97-1.72,1.12-2.93.64-8.87-3.53-15.67-9.46-20.57-17.62-.83-1.27-.68-2.27.32-3.44,1.48-1.74,3.34-3.72,3.74-6.07.4-2.35-.7-5.09-1.67-7.18-1.24-2.67-2.63-6.48-5.3-7.99-2.46-1.39-5.7-.61-7.89,1.17-3.78,3.08-5.61,7.9-5.55,12.69.02,1.36.18,2.71.5,4.03.76,3.16,2.22,6.1,3.86,8.9,1.24,2.11,2.58,4.16,4.03,6.13,4.75,6.45,10.65,12.05,17.49,16.24,3.42,2.09,7.1,3.93,10.91,5.19,4.27,1.41,8.08,2.88,12.69,2.01,4.83-.92,9.59-3.91,11.51-8.56.57-1.38.85-2.91.53-4.37-.66-3.01-4.73-4.8-7.17-6.26Z"/>
    <path class="cls-1" d="M109,54c30.33,0,55,24.67,55,55s-24.67,55-55,55c-10.6,0-20.9-3.04-29.79-8.78l-3.68-2.38-4.14,1.43-11.87,4.09,4.1-11.91,1.42-4.12-2.36-3.67c-5.69-8.86-8.69-19.11-8.69-29.66,0-30.33,24.67-55,55-55M109,45c-35.35,0-64,28.65-64,64,0,12.72,3.72,24.56,10.12,34.52l-10.12,29.36,29.33-10.1c9.99,6.46,21.89,10.22,34.67,10.22,35.35,0,64-28.65,64-64s-28.65-64-64-64h0Z"/>
    <path class="cls-1" d="M209,9v200H9V9h200M218,0H0v218h218V0h0Z"/>
  </g>
</svg>