<?xml version="1.0" encoding="UTF-8"?>
<svg id="Livello_2" data-name="Livello 2" xmlns="http://www.w3.org/2000/svg" viewBox="0 0 185.02 185.02">
  <defs>
    <style>
      .cls-1 {
        fill: #606060;
      }

      .cls-2 {
        fill: none;
        stroke: #000;
        stroke-dasharray: 4;
        stroke-linecap: round;
        stroke-linejoin: round;
        stroke-width: .5px;
      }

      .cls-3 {
        fill: #c7c7c7;
      }
    </style>
  </defs>
  <g id="Livello_1-2" data-name="Livello 1">
    <g>
      <g>
        <g>
          <path class="cls-3" d="M91.43,74.4v2.78c0,.13-.11.23-.23.23s-.23-.1-.23-.23v-2.78c0-.13.1-.23.23-.23s.23.11.23.23Z"/>
          <path class="cls-3" d="M91.43,79.97v2.78c0,.13-.11.23-.23.23s-.23-.11-.23-.23v-2.78c0-.13.1-.23.23-.23s.23.1.23.23Z"/>
          <path class="cls-3" d="M91.43,85.54v2.79c0,.13-.11.23-.23.23s-.23-.11-.23-.23v-2.79c0-.13.1-.23.23-.23s.23.11.23.23Z"/>
          <path class="cls-3" d="M91.43,91.12v2.78c0,.13-.11.23-.23.23s-.23-.11-.23-.23v-2.78c0-.13.1-.23.23-.23s.23.11.23.23Z"/>
          <path class="cls-3" d="M91.43,96.69v2.79c0,.13-.11.23-.23.23s-.23-.11-.23-.23v-2.79c0-.13.1-.23.23-.23s.23.11.23.23Z"/>
          <path class="cls-3" d="M91.43,102.26v2.78c0,.13-.11.23-.23.23s-.23-.1-.23-.23v-2.78c0-.13.1-.23.23-.23s.23.11.23.23Z"/>
          <path class="cls-3" d="M91.43,107.83v2.78c0,.13-.11.23-.23.23s-.23-.11-.23-.23v-2.78c0-.13.1-.23.23-.23s.23.1.23.23Z"/>
          <path class="cls-3" d="M91.35,70.52c-.13,0-.26,0-.38-.02v1.11c0,.13.1.23.23.23s.23-.11.23-.23v-1.1s-.06,0-.08,0ZM91.35,70.52c-.13,0-.26,0-.38-.02v1.11c0,.13.1.23.23.23s.23-.11.23-.23v-1.1s-.06,0-.08,0ZM104.18,54.16h-1.6v-1.6c0-.13-.11-.23-.23-.23s-.23.11-.23.23v1.6h-1.6c-.13,0-.23.11-.23.23s.1.23.23.23h1.6v1.6c0,.13.11.23.23.23s.23-.1.23-.23v-1.6h1.6c.13,0,.23-.11.23-.23s-.11-.23-.23-.23ZM116.45,70.55h-1.6v-1.6c0-.13-.1-.23-.23-.23s-.23.1-.23.23v1.6h-1.6c-.13,0-.23.11-.23.23s.11.23.23.23h1.6v1.6c0,.13.11.23.23.23s.23-.11.23-.23v-1.6h1.6c.13,0,.23-.11.23-.23s-.11-.23-.23-.23ZM104.18,54.16h-1.6v-1.6c0-.13-.11-.23-.23-.23s-.23.11-.23.23v1.6h-1.6c-.13,0-.23.11-.23.23s.1.23.23.23h1.6v1.6c0,.13.11.23.23.23s.23-.1.23-.23v-1.6h1.6c.13,0,.23-.11.23-.23s-.11-.23-.23-.23ZM91.35,70.52c-.13,0-.26,0-.38-.02v1.11c0,.13.1.23.23.23s.23-.11.23-.23v-1.1s-.06,0-.08,0ZM116.45,70.55h-1.6v-1.6c0-.13-.1-.23-.23-.23s-.23.1-.23.23v1.6h-1.6c-.13,0-.23.11-.23.23s.11.23.23.23h1.6v1.6c0,.13.11.23.23.23s.23-.11.23-.23v-1.6h1.6c.13,0,.23-.11.23-.23s-.11-.23-.23-.23ZM104.18,130.81h-1.6v-1.6c0-.13-.11-.23-.23-.23s-.23.11-.23.23v1.6h-1.6c-.13,0-.23.1-.23.23s.1.23.23.23h1.6v1.6c0,.13.11.23.23.23s.23-.11.23-.23v-1.6h1.6c.13,0,.23-.11.23-.23s-.11-.23-.23-.23ZM104.18,54.16h-1.6v-1.6c0-.13-.11-.23-.23-.23s-.23.11-.23.23v1.6h-1.6c-.13,0-.23.11-.23.23s.1.23.23.23h1.6v1.6c0,.13.11.23.23.23s.23-.1.23-.23v-1.6h1.6c.13,0,.23-.11.23-.23s-.11-.23-.23-.23ZM116.45,114.44h-1.6v-1.6c0-.13-.1-.23-.23-.23s-.23.11-.23.23v1.6h-1.6c-.13,0-.23.11-.23.23s.11.23.23.23h1.6v1.6c0,.13.11.23.23.23s.23-.11.23-.23v-1.6h1.6c.13,0,.23-.1.23-.23s-.11-.23-.23-.23ZM116.45,70.55h-1.6v-1.6c0-.13-.1-.23-.23-.23s-.23.1-.23.23v1.6h-1.6c-.13,0-.23.11-.23.23s.11.23.23.23h1.6v1.6c0,.13.11.23.23.23s.23-.11.23-.23v-1.6h1.6c.13,0,.23-.11.23-.23s-.11-.23-.23-.23ZM104.18,54.16h-1.6v-1.6c0-.13-.11-.23-.23-.23s-.23.11-.23.23v1.6h-1.6c-.13,0-.23.11-.23.23s.1.23.23.23h1.6v1.6c0,.13.11.23.23.23s.23-.1.23-.23v-1.6h1.6c.13,0,.23-.11.23-.23s-.11-.23-.23-.23ZM91.35,70.52c-.13,0-.26,0-.38-.02v1.11c0,.13.1.23.23.23s.23-.11.23-.23v-1.1s-.06,0-.08,0ZM104.18,130.81h-1.6v-1.6c0-.13-.11-.23-.23-.23s-.23.11-.23.23v1.6h-1.6c-.13,0-.23.1-.23.23s.1.23.23.23h1.6v1.6c0,.13.11.23.23.23s.23-.11.23-.23v-1.6h1.6c.13,0,.23-.11.23-.23s-.11-.23-.23-.23ZM116.45,114.44h-1.6v-1.6c0-.13-.1-.23-.23-.23s-.23.11-.23.23v1.6h-1.6c-.13,0-.23.11-.23.23s.11.23.23.23h1.6v1.6c0,.13.11.23.23.23s.23-.11.23-.23v-1.6h1.6c.13,0,.23-.1.23-.23s-.11-.23-.23-.23ZM116.45,70.55h-1.6v-1.6c0-.13-.1-.23-.23-.23s-.23.1-.23.23v1.6h-1.6c-.13,0-.23.11-.23.23s.11.23.23.23h1.6v1.6c0,.13.11.23.23.23s.23-.11.23-.23v-1.6h1.6c.13,0,.23-.11.23-.23s-.11-.23-.23-.23ZM118.36,47.41h0c-.09.01-.18.02-.27.03-.67.03-1.38-.17-2.07-.17-8.93.03-17.85.08-26.78.1h-.96c-.1,0-.19,0-.29,0h-.13c-.18,0-.35,0-.53,0h0c-.13,0-.26,0-.39,0-2.51-.02-5.02-.08-7.52-.1-.14,0-.27,0-.39,0-.15,0-.28,0-.39.01-.63.06-.63.32-.63,1.38,0,6.32-.01,12.64,0,18.96,0,2.15.07,4.29.11,6.44v.53c.19.02.38.03.58.04v4.59c0,10.02,0,20.04,0,30.06,0,.28-.03.56-.07.85-.01.12-.03.24-.04.36-.05,0-.09,0-.14-.01-.14-.01-.3-.03-.45-.04v.36s0,.23,0,.23c0,8.42.02,16.85-.03,25.28,0,.79.23,1.16.73,1.32t0,0c.09.03.19.05.29.06h0c.09.01.18.02.28.03.19,0,.39,0,.59,0,2.35,0,4.7-.01,7.04-.01.14,0,.27,0,.41,0h0c.2,0,.4,0,.61,0,.15,0,.31,0,.47,0,.85,0,1.7,0,2.55.01h.02c.15,0,.3,0,.45,0,4.53.05,9.06.15,13.59.22,2.34.04,4.68.11,7.02.11,1.95,0,3.9-.08,5.85-.1.74,0,1.51.2,2.22.08,2.11-.36,3.51-2.14,3.51-4.3V51.82c0-3.11-2.17-4.89-5.26-4.41ZM114.61,73.75c-1.64,0-2.97-1.33-2.97-2.97s1.33-2.97,2.97-2.97,2.97,1.33,2.97,2.97-1.33,2.97-2.97,2.97ZM114.61,111.71c1.64,0,2.97,1.33,2.97,2.97s-1.33,2.97-2.97,2.97-2.97-1.33-2.97-2.97,1.33-2.97,2.97-2.97ZM102.34,134.01c-1.64,0-2.97-1.33-2.97-2.97s1.33-2.97,2.97-2.97,2.97,1.33,2.97,2.97-1.33,2.97-2.97,2.97ZM102.93,123.78h-.05c-.29-.02-.68-.04-.84-.18-1.07-.97-1.98-1.88-2.8-2.78-.47-.51-.92-1.06-1.35-1.59-.73-.89-1.48-1.8-2.33-2.59-1-.92-2.33-2.15-4.13-1.79,0-.01,0-.03,0-.04v-1.41c0-.13-.11-.23-.23-.23s-.23.11-.23.23v1.41c0,.05.02.11.05.15-.07.02-.15.05-.23.08-.04.01-.07.04-.09.07-.29.06-.66.14-1.06.23-.23.05-.49.11-.74.16,0-.02,0-.03,0-.05-.03-.14-.06-.28-.09-.41-.07-.29-.13-.56-.13-.84-.02-1.13-.02-2.28-.01-3.39,0-.43,0-.85,0-1.28v-5.83c0-10.67,0-21.7,0-32.55,0-.32.06-.65.13-.99.02-.12.05-.23.07-.35.46.33,1.06.54,1.64.65.16.03.31.05.47.06v1.11c0,.13.1.23.23.23s.23-.11.23-.23v-1.1c1.61-.03,2.93-.96,4.02-1.92,1.4-1.22,2.6-2.67,3.76-4.08l.03-.04c.74-.89,1.51-1.82,2.32-2.68.08-.08.08-.22.01-.3.61-.03,1.23-.01,1.84,0,.38,0,.76.02,1.14.02,2.41,0,3.86,1.45,3.86,3.86,0,18.25,0,36.51,0,54.76,0,2.06-1.48,3.58-3.51,3.63-.61.01-1.3.03-1.97,0ZM91.37,70.06s-.11-.08-.17-.08c-.06,0-.12.03-.16.06-.02,0-.04,0-.07,0,.08-.03.16-.06.24-.1,1.8-.93,3.12-2.32,4.17-3.56l.42-.51c.94-1.12,1.92-2.28,2.97-3.32.51-.5,1.28-.88,1.95-.97.15-.02.3-.04.45-.05-.81.86-1.57,1.77-2.3,2.66l-.03.04c-1.15,1.39-2.33,2.82-3.71,4.02-1.04.9-2.28,1.79-3.78,1.81ZM102.34,57.37c-1.64,0-2.97-1.33-2.97-2.97s1.33-2.97,2.97-2.97,2.97,1.33,2.97,2.97-1.33,2.97-2.97,2.97ZM116.45,70.55h-1.6v-1.6c0-.13-.1-.23-.23-.23s-.23.1-.23.23v1.6h-1.6c-.13,0-.23.11-.23.23s.11.23.23.23h1.6v1.6c0,.13.11.23.23.23s.23-.11.23-.23v-1.6h1.6c.13,0,.23-.11.23-.23s-.11-.23-.23-.23ZM112.78,114.91h1.6v1.6c0,.13.11.23.23.23s.23-.11.23-.23v-1.6h1.6c.13,0,.23-.1.23-.23s-.11-.23-.23-.23h-1.6v-1.6c0-.13-.1-.23-.23-.23s-.23.11-.23.23v1.6h-1.6c-.13,0-.23.11-.23.23s.11.23.23.23ZM104.18,54.16h-1.6v-1.6c0-.13-.11-.23-.23-.23s-.23.11-.23.23v1.6h-1.6c-.13,0-.23.11-.23.23s.1.23.23.23h1.6v1.6c0,.13.11.23.23.23s.23-.1.23-.23v-1.6h1.6c.13,0,.23-.11.23-.23s-.11-.23-.23-.23ZM104.18,130.81h-1.6v-1.6c0-.13-.11-.23-.23-.23s-.23.11-.23.23v1.6h-1.6c-.13,0-.23.1-.23.23s.1.23.23.23h1.6v1.6c0,.13.11.23.23.23s.23-.11.23-.23v-1.6h1.6c.13,0,.23-.11.23-.23s-.11-.23-.23-.23ZM116.45,70.55h-1.6v-1.6c0-.13-.1-.23-.23-.23s-.23.1-.23.23v1.6h-1.6c-.13,0-.23.11-.23.23s.11.23.23.23h1.6v1.6c0,.13.11.23.23.23s.23-.11.23-.23v-1.6h1.6c.13,0,.23-.11.23-.23s-.11-.23-.23-.23ZM116.45,114.44h-1.6v-1.6c0-.13-.1-.23-.23-.23s-.23.11-.23.23v1.6h-1.6c-.13,0-.23.11-.23.23s.11.23.23.23h1.6v1.6c0,.13.11.23.23.23s.23-.11.23-.23v-1.6h1.6c.13,0,.23-.1.23-.23s-.11-.23-.23-.23ZM91.35,70.52c-.13,0-.26,0-.38-.02v1.11c0,.13.1.23.23.23s.23-.11.23-.23v-1.1s-.06,0-.08,0ZM104.18,54.16h-1.6v-1.6c0-.13-.11-.23-.23-.23s-.23.11-.23.23v1.6h-1.6c-.13,0-.23.11-.23.23s.1.23.23.23h1.6v1.6c0,.13.11.23.23.23s.23-.1.23-.23v-1.6h1.6c.13,0,.23-.11.23-.23s-.11-.23-.23-.23ZM116.45,70.55h-1.6v-1.6c0-.13-.1-.23-.23-.23s-.23.1-.23.23v1.6h-1.6c-.13,0-.23.11-.23.23s.11.23.23.23h1.6v1.6c0,.13.11.23.23.23s.23-.11.23-.23v-1.6h1.6c.13,0,.23-.11.23-.23s-.11-.23-.23-.23ZM116.45,114.44h-1.6v-1.6c0-.13-.1-.23-.23-.23s-.23.11-.23.23v1.6h-1.6c-.13,0-.23.11-.23.23s.11.23.23.23h1.6v1.6c0,.13.11.23.23.23s.23-.11.23-.23v-1.6h1.6c.13,0,.23-.1.23-.23s-.11-.23-.23-.23ZM104.18,54.16h-1.6v-1.6c0-.13-.11-.23-.23-.23s-.23.11-.23.23v1.6h-1.6c-.13,0-.23.11-.23.23s.1.23.23.23h1.6v1.6c0,.13.11.23.23.23s.23-.1.23-.23v-1.6h1.6c.13,0,.23-.11.23-.23s-.11-.23-.23-.23ZM91.35,70.52c-.13,0-.26,0-.38-.02v1.11c0,.13.1.23.23.23s.23-.11.23-.23v-1.1s-.06,0-.08,0ZM104.18,54.16h-1.6v-1.6c0-.13-.11-.23-.23-.23s-.23.11-.23.23v1.6h-1.6c-.13,0-.23.11-.23.23s.1.23.23.23h1.6v1.6c0,.13.11.23.23.23s.23-.1.23-.23v-1.6h1.6c.13,0,.23-.11.23-.23s-.11-.23-.23-.23ZM104.18,54.16h-1.6v-1.6c0-.13-.11-.23-.23-.23s-.23.11-.23.23v1.6h-1.6c-.13,0-.23.11-.23.23s.1.23.23.23h1.6v1.6c0,.13.11.23.23.23s.23-.1.23-.23v-1.6h1.6c.13,0,.23-.11.23-.23s-.11-.23-.23-.23ZM91.35,70.52c-.13,0-.26,0-.38-.02v1.11c0,.13.1.23.23.23s.23-.11.23-.23v-1.1s-.06,0-.08,0Z"/>
          <path class="cls-1" d="M101.19,61.53c-.81.86-1.57,1.77-2.3,2.66l-.03.04c-1.15,1.39-2.33,2.82-3.71,4.02-1.04.9-2.28,1.79-3.78,1.81-.04-.05-.11-.08-.17-.08-.06,0-.12.03-.16.06-.02,0-.04,0-.07,0,.08-.03.16-.06.24-.1,1.8-.93,3.12-2.32,4.17-3.56l.42-.51c.94-1.12,1.92-2.28,2.97-3.32.51-.5,1.28-.88,1.95-.97.15-.02.3-.04.45-.05Z"/>
          <path d="M123.85,51.82v81.91c0,2.3-1.52,4.17-3.71,4.53-.17.03-.35.04-.52.04-.29,0-.58-.03-.87-.06-.29-.03-.59-.06-.86-.06-.85,0-1.72.03-2.56.05-1.08.03-2.2.06-3.29.05-1.64,0-3.3-.04-4.91-.07-.71-.01-1.41-.03-2.11-.04-1.41-.03-2.82-.05-4.23-.07-3.07-.06-6.23-.11-9.36-.15-.15,0-.3,0-.45,0h-.02c-.84,0-1.69-.01-2.54-.01-.15,0-.31,0-.47,0-1.57,0-3.13,0-4.67,0-1.14,0-2.28,0-3.41,0h-.19c-.14,0-.27,0-.41,0-.08,0-.17,0-.24-.02-.17-.02-.33-.06-.47-.11-.58-.21-.83-.69-.83-1.51.04-6.44.03-12.99.03-19.33,0-1.98,0-3.96,0-5.94,0-.05.01-.09.04-.13.04-.06.11-.1.19-.1.09,0,.17.05.2.12.02.03.03.07.03.11,0,1.61,0,3.22,0,4.83v1.11c0,6.34,0,12.89-.03,19.33,0,.95.35,1.13,1.09,1.17.13,0,.26,0,.38,0h.19c1.14,0,2.27,0,3.41,0,1.19,0,2.39,0,3.6,0,.15,0,.31,0,.47,0,.19,0,.38,0,.57,0,.15,0,.31,0,.47,0,.86,0,1.73,0,2.58.01.06,0,.12,0,.19,0t0,0h.05c3.2.03,6.44.09,9.58.15,1.41.03,2.82.05,4.23.07.7.01,1.41.03,2.12.04,1.6.03,3.26.07,4.9.07,1.09,0,2.2-.03,3.28-.05.84-.02,1.71-.04,2.56-.05.04,0,.08,0,.12,0,.17,0,.33.01.49.03.1,0,.2.02.31.03.44.05.87.09,1.26.03,1.95-.33,3.32-2,3.32-4.07V51.82c0-1.43-.47-2.59-1.35-3.34-.86-.74-2.1-1.04-3.49-.86-.05,0-.11.01-.16.02-.12.02-.25.03-.37.03-.35,0-.71-.04-1.06-.08-.31-.04-.63-.08-.93-.08h0c-3.92.01-7.84.03-11.76.05-4.93.02-10.01.04-15.02.05-.27,0-.54,0-.81,0-.16,0-.31,0-.47,0-.2,0-.4,0-.59,0-.16,0-.31,0-.47,0-1.2,0-2.4-.03-3.57-.05-1.3-.02-2.61-.04-3.92-.05-.53,0-.95,0-1.06.11s-.11.49-.11,1.06v5.31c0,4.47,0,9.1,0,13.65,0,.4,0,.79,0,1.19,0,.14,0,.28,0,.42h0c.01.94.04,1.89.06,2.81.01.67.03,1.34.04,2.01,0,.03,0,.06-.02.09-.03.09-.12.15-.22.15h0c-.11,0-.21-.08-.23-.19,0-.01,0-.03,0-.04l-.04-2.01c-.03-1.45-.07-2.95-.07-4.43-.01-4.55,0-9.18,0-13.65v-5.31c0-.76,0-1.15.25-1.39.12-.12.28-.18.5-.21.14-.02.31-.03.51-.03.11,0,.24,0,.38,0,1.31.01,2.61.03,3.92.05,1.48.02,3.01.04,4.52.05.16,0,.33,0,.49,0,.3,0,.59,0,.88,0,5.01,0,10.1-.03,15.02-.05,3.92-.02,7.84-.04,11.76-.05.33,0,.67.04,1,.09.46.06.89.12,1.3.05,1.59-.25,3.02.09,4.02.95.99.85,1.52,2.13,1.52,3.7Z"/>
        </g>
        <path d="M76.84,153.6c-.13,0-.23-.1-.23-.23v-2.39c0-12.75,0-25.5,0-38.25,0-.02-.06-.09-.09-.14-.04-.05-.07-.1-.1-.15-.06-.11-.03-.26.09-.32.11-.06.26-.03.32.09.02.04.05.07.07.11.08.11.18.25.18.41,0,12.75,0,25.5,0,38.25v2.39c0,.13-.1.23-.23.23Z"/>
        <path d="M76.83,73.77h0c-.13,0-.23-.1-.23-.23,0-14.19,0-28.37,0-42.56,0-.13.1-.23.23-.23s.23.1.23.23c0,14.18,0,28.37,0,42.56,0,.13-.1.23-.23.23Z"/>
        <path d="M118.24,137.95s-.1-.02-.14-.05c-.1-.08-.12-.22-.05-.33.03-.05.07-.09.1-.14.08-.12.17-.26.3-.37,1.16-.9,1.68-2.07,1.68-3.8-.02-17.3-.02-34.88-.02-51.89v-13.05c0-.69,0-1.39,0-2.08,0-1.54,0-3.14,0-4.71,0-.96.03-1.94.05-2.88.04-1.7.07-3.46.04-5.19,0-.22,0-.45,0-.67,0-1.33,0-2.59-.96-3.62-.29-.31-.56-.64-.82-.97-.12-.15-.24-.3-.36-.44-.08-.1-.07-.25.03-.33.1-.08.25-.07.33.03.12.15.24.3.37.45.26.32.52.64.8.94,1.09,1.17,1.08,2.58,1.08,3.94,0,.22,0,.44,0,.66.04,1.74,0,3.5-.04,5.21-.02.94-.04,1.92-.05,2.87-.01,1.57,0,3.16,0,4.7,0,.69,0,1.39,0,2.08v13.05c0,17.01,0,34.59.02,51.89,0,1.86-.59,3.18-1.86,4.17-.07.05-.13.15-.2.25-.04.06-.07.11-.11.17-.05.06-.12.09-.19.09Z"/>
        <path d="M108.88,65.4c0,18.25,0,36.51,0,54.76,0,2.32-1.67,4.04-3.97,4.09-.33,0-.68.01-1.04.01-.32,0-.64,0-.96-.02h-.05c-.38-.02-.85-.05-1.13-.3-1.08-.98-2-1.9-2.83-2.81-.47-.52-.93-1.08-1.37-1.61-.72-.87-1.46-1.78-2.29-2.54-1.22-1.12-2.36-2.02-3.88-1.64-.13.03-.27.07-.41.13-.12.05-.26-.01-.3-.13-.03-.08-.01-.17.04-.23.02-.03.06-.05.09-.07.08-.03.15-.06.23-.08.14-.05.28-.08.41-.11,1.81-.36,3.13.87,4.13,1.79.85.79,1.6,1.71,2.33,2.59.44.53.89,1.08,1.35,1.59.82.9,1.73,1.81,2.8,2.78.16.14.55.16.84.18h.05c.67.04,1.36.03,1.97.01,2.04-.04,3.51-1.57,3.51-3.63,0-18.25,0-36.51,0-54.76,0-2.42-1.44-3.86-3.86-3.86-.38,0-.76-.01-1.14-.02-.6-.02-1.22-.04-1.84,0-.13,0-.26.01-.39.02-.15.01-.3.03-.45.05-.67.09-1.44.47-1.95.97-1.05,1.04-2.03,2.19-2.97,3.32l-.42.51c-1.05,1.24-2.37,2.64-4.17,3.56-.08.04-.16.07-.24.1h0c-.67.23-1.47.09-2.09-.37-.03-.02-.05-.04-.08-.06-.07-.05-.1-.14-.09-.22,0-.04.03-.07.05-.11.03-.04.07-.07.12-.08.07-.02.15,0,.21.04.57.45,1.34.56,1.9.27,1.73-.89,3.01-2.24,4.03-3.45l.42-.5c.95-1.13,1.93-2.3,3-3.35.58-.57,1.45-1,2.22-1.1.91-.12,1.85-.09,2.76-.07.37,0,.75.02,1.12.02,2.67,0,4.33,1.66,4.33,4.33Z"/>
        <path d="M88.42,110.8c0,.13-.11.24-.24.23-.83,0-1.66-.03-2.49-.04-2.21-.04-4.49-.09-6.74-.02-.16,0-.35-.01-.54-.04-.07,0-.13-.01-.2-.02-.07,0-.14-.01-.2-.02-.07,0-.13,0-.19,0-.25,0-.47.05-.62.19-.17.16-.26.45-.25.88,0,.11-.04.19-.11.27-.07.08-.17.15-.26.22l-.06.05s-.03.02-.04.03c-.15.12-.31.23-.47.34-.31.22-.6.43-.86.67-.96.91-1.91,1.82-2.86,2.73-1.59,1.52-3.24,3.1-4.88,4.62-.57.52-1.35.93-2.09,1.09-.55.12-1.12.13-1.67.14-.45,0-.93.02-1.37.09-.39.06-.77.1-1.13.1-1.12,0-2.07-.31-2.78-.91-.91-.78-1.39-2.02-1.39-3.59v-39.19c0-3.9,0-7.81,0-11.71,0-1.35.58-2.65,1.54-3.48.81-.7,1.81-1,2.82-.86.85.12,1.59.16,2.29.11,1.58-.1,2.87.4,4.05,1.59.85.86,1.75,1.7,2.61,2.52,1.3,1.23,2.65,2.51,3.89,3.85.31.34.7.61,1.11.9.47.33.95.67,1.32,1.12.19.23.35.5.47.81.06.15.1.3.13.47.05.03.17.08.26.09.14.02.29.03.44.05.07,0,.15.01.23.02.07,0,.15.01.22.02.24.02.48.03.71.03,2.26-.02,4.57-.05,6.79-.08l2.33-.03h0c.13,0,.22.1.23.23,0,.13-.1.23-.23.24h0l-2.33.03c-2.19.03-4.45.06-6.68.08h-.11c-.12,0-.24,0-.35,0-.2,0-.39-.02-.59-.04-.25-.02-.5-.05-.73-.08,0,0-.6-.08-.66-.42-.03-.17-.07-.33-.13-.47-.29-.75-.93-1.21-1.61-1.68-.41-.29-.84-.59-1.18-.97-1.22-1.33-2.57-2.6-3.87-3.83-.87-.82-1.77-1.67-2.62-2.53-1.08-1.09-2.25-1.55-3.69-1.45-.27.02-.55.02-.83.02-.17,0-.35-.01-.53-.02-.33-.02-.67-.06-1.02-.11-.88-.12-1.75.14-2.45.75-.86.74-1.37,1.91-1.37,3.12,0,3.9,0,7.81,0,11.71v39.19c0,1.43.42,2.55,1.23,3.23.8.68,1.98.93,3.41.73.04,0,.08,0,.13-.02.12-.02.24-.04.37-.05.36-.04.72-.04,1.07-.05.55-.01,1.08-.02,1.58-.13.66-.14,1.36-.51,1.87-.98,1.64-1.52,3.29-3.09,4.88-4.61.95-.91,1.91-1.82,2.86-2.73.29-.27.61-.5.92-.72.17-.12.33-.24.5-.36l.07-.05c.05-.04.14-.1.18-.15,0-.55.13-.94.41-1.19.31-.28.73-.32,1.13-.3.15,0,.3.02.45.04.05,0,.09,0,.14.01.13.01.24.02.34.02.04,0,.09,0,.13,0,2.21-.07,4.45-.02,6.63.02.83.02,1.66.03,2.48.04h0c.13,0,.23.11.23.24Z"/>
        <g>
          <path class="cls-1" d="M62.02,121.7s.02.05.04.07c-1.43.21-2.6-.04-3.41-.73-.8-.68-1.23-1.8-1.23-3.23v-39.19c0-3.9,0-7.81,0-11.71,0-1.21.52-2.38,1.37-3.12.7-.61,1.57-.87,2.45-.75.36.05.7.09,1.02.11-.12.13-.24.26-.36.38-.39.4-.79.81-1.04,1.31-.39.8-.62,1.73-.62,2.54-.02,10.93-.02,22.04-.03,32.78,0,5.85,0,11.69,0,17.54,0,1.19.18,2.7,1.62,3.71.07.05.12.17.18.29Z"/>
          <path d="M60.7,100.17c0,5.85,0,11.69,0,17.54,0,1.63.42,2.62,1.42,3.33.17.12.26.3.33.47.03.06.06.12.09.18,0,.01.01.02.02.04.04.11,0,.23-.1.29-.04.02-.08.04-.12.04-.08,0-.16-.04-.2-.11-.03-.04-.05-.09-.08-.14-.01-.03-.02-.05-.04-.07-.06-.12-.11-.24-.18-.29-1.44-1.02-1.62-2.52-1.62-3.71,0-5.85,0-11.69,0-17.54,0-10.74,0-21.85.03-32.78,0-.81.23-1.74.62-2.54.25-.5.65-.91,1.04-1.31.12-.12.25-.25.36-.38.04-.04.08-.09.12-.13.08-.1.23-.11.33-.02.05.05.08.11.08.18,0,.05-.02.11-.06.15-.16.18-.33.36-.5.53-.38.39-.74.76-.95,1.19-.36.74-.57,1.59-.57,2.34-.02,10.93-.02,22.04-.03,32.78Z"/>
        </g>
        <path d="M88.88,115.49c0,.11-.08.2-.19.22-.01,0-.03,0-.04,0-.09,0-.17-.05-.21-.13-.01-.02-.02-.04-.02-.06-.02-.13-.05-.26-.08-.4-.07-.3-.14-.61-.15-.93-.02-1.05-.02-2.12-.01-3.16v-.47c0-.35,0-.7,0-1.05v-5.83c0-9.56,0-19.41,0-29.16v-.47c0-.98,0-1.95,0-2.93,0-.37.07-.73.14-1.08.03-.16.06-.32.09-.48,0-.05.03-.09.05-.12.05-.06.13-.09.21-.08.01,0,.02,0,.03,0,.11.03.18.14.17.26,0,0,0,.01,0,.02,0,.04-.01.08-.02.12-.02.12-.04.23-.07.35-.07.34-.13.67-.13.99-.01,10.85,0,21.88,0,32.55v5.83c0,.43,0,.85,0,1.28,0,1.11,0,2.26.01,3.39,0,.27.07.55.13.84.03.14.06.28.09.41,0,.02,0,.03,0,.05Z"/>
        <path d="M79.18,74.53v4.7c0,10.02,0,20.04,0,30.06,0,.3-.04.61-.07.9-.01.11-.02.21-.03.32,0,.03,0,.06,0,.08-.01.12-.11.21-.23.21h-.02c-.13-.01-.22-.13-.21-.26,0-.02,0-.04,0-.06.01-.12.03-.24.04-.36.03-.3.07-.57.07-.85,0-10.02,0-20.04,0-30.06v-4.7c0-.13.11-.23.23-.23s.23.11.23.23Z"/>
        <path d="M88.53,128.47c0,1.91-.04,3.85-.07,5.72-.01.9-.03,1.8-.04,2.71v.22c0,.12,0,.24,0,.36,0,.08,0,.16,0,.23,0,.04,0,.07,0,.11,0,.04,0,.09,0,.13.06.98-.06,1.55-.41,1.94-.34.39-.89.57-1.82.62-.91.05-1.85.07-2.81.07s-1.92-.02-2.94-.07c-1.19-.05-1.7-.52-1.93-.91-.28-.48-.27-1.1.05-1.78.01-.03.03-.06.04-.09.02-.04.06-.08.1-.1t0,0c.06-.04.15-.04.22,0,.03.02.06.04.08.07h0c.05.07.07.16.03.24,0,0,0,0,0,.01-.28.56-.32,1.05-.11,1.42.24.4.78.64,1.55.68,2.05.09,3.92.09,5.71,0,.78-.04,1.24-.18,1.49-.46.25-.29.34-.78.29-1.63,0-.03,0-.06,0-.09,0-.05,0-.1,0-.14,0-.08,0-.16,0-.23,0-.12,0-.25,0-.37v-.21c.02-.9.03-1.81.05-2.71.03-1.87.06-3.81.07-5.72.01-2.87,0-5.8,0-8.62,0-1.22,0-2.44,0-3.66,0-.01,0-.03,0-.04.02-.11.11-.19.23-.19.08,0,.15.04.19.1.03.04.04.08.04.13,0,1.22,0,2.44,0,3.66,0,2.83,0,5.75,0,8.63Z"/>
        <path d="M101.57,61.81c-.81.86-1.58,1.78-2.32,2.68l-.03.04c-1.16,1.4-2.36,2.85-3.76,4.08-1.1.96-2.41,1.89-4.02,1.92-.03,0-.06,0-.08,0-.13,0-.26,0-.38-.02-.15-.01-.31-.03-.47-.06-.58-.11-1.18-.33-1.64-.65-.15-.1-.27-.21-.38-.33-.09-.1-.17-.21-.23-.32-.08-.14-.13-.3-.16-.46-.01-.07-.02-.15-.02-.23,0-.53-.03-1.07-.05-1.59-.03-.59-.06-1.2-.05-1.81.01-3.02.04-6.04.06-9.05.02-2.37.04-4.73.05-7.1,0-.31-.03-.61-.07-.93-.01-.12-.02-.24-.04-.36,0-.03,0-.06,0-.09,0-.02,0-.03,0-.05h0s.02-.07.04-.1c.04-.06.1-.1.18-.11.05,0,.1,0,.14.03.03.02.06.04.08.08.02.03.03.07.04.11,0,.04,0,.08.01.13,0,.1.02.21.03.31.04.32.07.65.07.99-.01,2.37-.03,4.73-.05,7.1-.02,3.02-.04,6.04-.06,9.05,0,.59.02,1.2.05,1.78.02.53.05,1.07.05,1.61,0,.3.14.55.36.77.41.4,1.09.66,1.7.78.13.02.26.04.38.05h0s.05,0,.07,0c.11.01.22.02.33.01,1.5-.01,2.74-.9,3.78-1.81,1.37-1.2,2.56-2.63,3.71-4.02l.03-.04c.73-.89,1.49-1.8,2.3-2.66.01-.01.03-.03.04-.04.09-.09.24-.1.33,0,0,0,.02.02.02.03.07.09.07.22-.01.3Z"/>
        <path d="M87.13,137.83c-.13,0-.23-.1-.23-.23v-21.3c0-.13.1-.23.23-.23s.23.1.23.23v21.3c0,.13-.1.23-.23.23Z"/>
        <path d="M87.13,68.91c-.13,0-.23-.1-.23-.23v-21.18c0-.13.1-.23.23-.23s.23.1.23.23v21.18c0,.13-.1.23-.23.23Z"/>
        <path d="M88.35,47.13c-.02.05-.03.11-.05.16,0,.01,0,.03-.01.04,0,.01,0,.02-.01.03-.04.08-.12.12-.21.12-.03,0-.05,0-.08-.01-.01,0-.03,0-.04-.01h0s-.08-.06-.1-.1c-.03-.06-.03-.12,0-.19,0-.02.01-.04.02-.05.28-.82.31-1.38.08-1.71-.22-.32-.71-.46-1.64-.49-2.02-.06-3.98-.05-5.83.01-.62.02-1.24.23-1.57.53-.38.34-.25.81.13,1.55,0,0,0,0,0,0,.04.07.03.16,0,.23-.02.04-.05.06-.09.08-.1.06-.23.02-.3-.07,0,0-.02-.02-.02-.03-.03-.06-.06-.12-.1-.19-.27-.55-.58-1.34.06-1.93.5-.45,1.3-.63,1.87-.65,1.86-.07,3.83-.07,5.86-.01.81.02,1.62.12,2.01.7.3.44.31,1.07.02,1.97Z"/>
        <path d="M91.37,115.34c-.03.07-.1.13-.18.14-.25.04-.81.16-1.45.31-.41.09-.83.18-1.24.27-.15.03-.29.06-.42.09-.25.05-.49.1-.71.14-.17.03-.33.06-.47.08-.2.03-.36.04-.47.04h-.33c-1.85,0-3.72-.03-5.53-.06-.74-.01-1.48-.03-2.22-.04-.04,0-.08-.01-.11-.03-.07-.04-.12-.12-.12-.21,0-.09.05-.16.12-.2.03-.02.07-.03.12-.03.74,0,1.48.02,2.22.04,1.92.03,3.9.07,5.85.06.31,0,1.15-.16,2.01-.35.15-.03.3-.06.44-.1.26-.06.51-.11.74-.16.41-.09.78-.17,1.06-.23.17-.04.31-.06.41-.08,0,0,0,0,0,0,.05,0,.09,0,.13.02.07.03.12.1.13.18,0,.04,0,.09-.01.13Z"/>
        <path d="M78.36,69.26c-.13,0-.23-.1-.23-.23,0-.13.1-.24.23-.24l9.82-.12c.13,0,.24.1.24.23,0,.13-.1.24-.23.24l-9.82.12h0Z"/>
        <g>
          <path class="cls-3" d="M87.67,139.57c-.25.28-.71.42-1.49.46-1.79.09-3.66.09-5.71,0-.76-.04-1.31-.28-1.55-.68-.21-.37-.18-.85.11-1.42,0,0,0,0,0-.01.08.01.16.02.24.02.14,0,.28,0,.41,0h.19c1.14,0,2.28,0,3.41,0,1.53,0,3.1,0,4.67,0,.05.85-.04,1.34-.29,1.63Z"/>
          <path class="cls-3" d="M87.86,47.13c-1.52,0-3.04-.03-4.52-.05-1.31-.02-2.62-.04-3.92-.05-.14,0-.27,0-.38,0-.38-.74-.52-1.21-.13-1.55.33-.3.95-.51,1.57-.53,1.85-.07,3.81-.07,5.83-.01.93.03,1.42.17,1.64.49.22.33.2.89-.08,1.71Z"/>
          <path d="M123.85,51.82v81.91c0,2.3-1.52,4.17-3.71,4.53-.17.03-.35.04-.52.04-.29,0-.58-.03-.87-.06-.29-.03-.59-.06-.86-.06-.85,0-1.72.03-2.56.05-1.08.03-2.2.06-3.29.05-1.64,0-3.3-.04-4.91-.07-.71-.01-1.41-.03-2.11-.04-1.41-.03-2.82-.05-4.23-.07-3.07-.06-6.23-.11-9.36-.15-.15,0-.3,0-.45,0h-.02c-.84,0-1.69-.01-2.54-.01-.15,0-.31,0-.47,0-1.57,0-3.13,0-4.67,0-1.14,0-2.28,0-3.41,0h-.19c-.14,0-.27,0-.41,0-.08,0-.17,0-.24-.02-.17-.02-.33-.06-.47-.11-.58-.21-.83-.69-.83-1.51.04-6.44.03-12.99.03-19.33,0-1.98,0-3.96,0-5.94,0-.05.01-.09.04-.13.04-.06.11-.1.19-.1.09,0,.17.05.2.12.02.03.03.07.03.11,0,1.61,0,3.22,0,4.83v1.11c0,6.34,0,12.89-.03,19.33,0,.95.35,1.13,1.09,1.17.13,0,.26,0,.38,0h.19c1.14,0,2.27,0,3.41,0,1.19,0,2.39,0,3.6,0,.15,0,.31,0,.47,0,.19,0,.38,0,.57,0,.15,0,.31,0,.47,0,.86,0,1.73,0,2.58.01.06,0,.12,0,.19,0t0,0h.05c3.2.03,6.44.09,9.58.15,1.41.03,2.82.05,4.23.07.7.01,1.41.03,2.12.04,1.6.03,3.26.07,4.9.07,1.09,0,2.2-.03,3.28-.05.84-.02,1.71-.04,2.56-.05.04,0,.08,0,.12,0,.17,0,.33.01.49.03.1,0,.2.02.31.03.44.05.87.09,1.26.03,1.95-.33,3.32-2,3.32-4.07V51.82c0-1.43-.47-2.59-1.35-3.34-.86-.74-2.1-1.04-3.49-.86-.05,0-.11.01-.16.02-.12.02-.25.03-.37.03-.35,0-.71-.04-1.06-.08-.31-.04-.63-.08-.93-.08h0c-3.92.01-7.84.03-11.76.05-4.93.02-10.01.04-15.02.05-.27,0-.54,0-.81,0-.16,0-.31,0-.47,0-.2,0-.4,0-.59,0-.16,0-.31,0-.47,0-1.2,0-2.4-.03-3.57-.05-1.3-.02-2.61-.04-3.92-.05-.53,0-.95,0-1.06.11s-.11.49-.11,1.06v5.31c0,4.47,0,9.1,0,13.65,0,.4,0,.79,0,1.19,0,.14,0,.28,0,.42h0c.01.94.04,1.89.06,2.81.01.67.03,1.34.04,2.01,0,.03,0,.06-.02.09-.03.09-.12.15-.22.15h0c-.11,0-.21-.08-.23-.19,0-.01,0-.03,0-.04l-.04-2.01c-.03-1.45-.07-2.95-.07-4.43-.01-4.55,0-9.18,0-13.65v-5.31c0-.76,0-1.15.25-1.39.12-.12.28-.18.5-.21.14-.02.31-.03.51-.03.11,0,.24,0,.38,0,1.31.01,2.61.03,3.92.05,1.48.02,3.01.04,4.52.05.16,0,.33,0,.49,0,.3,0,.59,0,.88,0,5.01,0,10.1-.03,15.02-.05,3.92-.02,7.84-.04,11.76-.05.33,0,.67.04,1,.09.46.06.89.12,1.3.05,1.59-.25,3.02.09,4.02.95.99.85,1.52,2.13,1.52,3.7Z"/>
        </g>
        <g>
          <g>
            <path d="M72.12,87.7c-1.9,0-3.44,1.54-3.44,3.44s1.54,3.44,3.44,3.44,3.44-1.54,3.44-3.44-1.54-3.44-3.44-3.44ZM72.12,94.11c-1.64,0-2.97-1.33-2.97-2.97s1.33-2.97,2.97-2.97,2.97,1.33,2.97,2.97-1.33,2.97-2.97,2.97Z"/>
            <path class="cls-1" d="M72.12,88.17c-1.64,0-2.97,1.33-2.97,2.97s1.33,2.97,2.97,2.97,2.97-1.33,2.97-2.97-1.33-2.97-2.97-2.97ZM73.95,91.37h-1.6v1.6c0,.13-.11.23-.23.23s-.23-.11-.23-.23v-1.6h-1.6c-.13,0-.23-.1-.23-.23s.11-.23.23-.23h1.6v-1.6c0-.13.11-.23.23-.23s.23.11.23.23v1.6h1.6c.13,0,.23.11.23.23s-.11.23-.23.23Z"/>
          </g>
          <path d="M72.35,89.31v3.67c0,.13-.11.23-.23.23s-.23-.11-.23-.23v-3.67c0-.13.11-.23.23-.23s.23.11.23.23Z"/>
          <path d="M74.19,91.14c0,.13-.11.23-.23.23h-3.67c-.13,0-.23-.1-.23-.23s.11-.23.23-.23h3.67c.13,0,.23.11.23.23Z"/>
        </g>
        <g>
          <g>
            <path d="M66.08,111.24c-1.89,0-3.44,1.54-3.44,3.44s1.54,3.44,3.44,3.44,3.44-1.54,3.44-3.44-1.54-3.44-3.44-3.44ZM66.08,117.65c-1.64,0-2.97-1.33-2.97-2.97s1.33-2.97,2.97-2.97,2.97,1.33,2.97,2.97-1.33,2.97-2.97,2.97Z"/>
            <path class="cls-1" d="M66.08,111.71c-1.64,0-2.97,1.33-2.97,2.97s1.33,2.97,2.97,2.97,2.97-1.33,2.97-2.97-1.33-2.97-2.97-2.97ZM67.91,114.91h-1.6v1.6c0,.13-.1.23-.23.23s-.23-.11-.23-.23v-1.6h-1.6c-.13,0-.23-.1-.23-.23s.11-.23.23-.23h1.6v-1.6c0-.13.11-.23.23-.23s.23.11.23.23v1.6h1.6c.13,0,.23.11.23.23s-.11.23-.23.23Z"/>
          </g>
          <path d="M66.31,112.84v3.67c0,.13-.1.23-.23.23s-.23-.11-.23-.23v-3.67c0-.13.11-.23.23-.23s.23.11.23.23Z"/>
          <path d="M68.15,114.68c0,.13-.11.23-.23.23h-3.67c-.13,0-.23-.1-.23-.23s.11-.23.23-.23h3.67c.13,0,.23.11.23.23Z"/>
        </g>
        <g>
          <g>
            <path d="M66.08,67.34c-1.89,0-3.44,1.54-3.44,3.44s1.54,3.44,3.44,3.44,3.44-1.54,3.44-3.44-1.54-3.44-3.44-3.44ZM66.08,73.75c-1.64,0-2.97-1.33-2.97-2.97s1.33-2.97,2.97-2.97,2.97,1.33,2.97,2.97-1.33,2.97-2.97,2.97Z"/>
            <path class="cls-3" d="M78.12,74.59c-.25-.02-.5-.05-.73-.08,0,0-.6-.08-.66-.42-.03-.17-.07-.33-.13-.47-.29-.75-.93-1.21-1.61-1.68-.41-.29-.84-.59-1.18-.97-1.22-1.33-2.57-2.6-3.87-3.83-.87-.82-1.77-1.67-2.62-2.53-1.08-1.09-2.25-1.55-3.69-1.45-.27.02-.55.02-.83.02,0,.05-.02.11-.06.15-.16.18-.33.36-.5.53-.38.39-.74.76-.95,1.19-.36.74-.57,1.59-.57,2.34-.02,10.93-.02,22.04-.03,32.78,0,5.85,0,11.69,0,17.54,0,1.63.42,2.62,1.42,3.33.17.12.26.3.33.47.03.06.06.12.09.18,0,.01.01.02.02.04.36-.04.72-.04,1.07-.05.55-.01,1.08-.02,1.58-.13.66-.14,1.36-.51,1.87-.98,1.64-1.52,3.29-3.09,4.88-4.61.95-.91,1.91-1.82,2.86-2.73.29-.27.61-.5.92-.72.17-.12.33-.24.5-.36l.07-.05c.05-.04.14-.1.18-.15,0-.55.13-.94.41-1.19.31-.28.73-.32,1.13-.3.15,0,.3.02.45.04.05,0,.09,0,.14.01.01-.12.03-.24.04-.36.03-.3.07-.57.07-.85,0-10.02,0-20.04,0-30.06v-4.59c-.2,0-.39-.02-.59-.04ZM66.08,67.34c1.9,0,3.44,1.54,3.44,3.44s-1.54,3.44-3.44,3.44-3.44-1.54-3.44-3.44,1.54-3.44,3.44-3.44ZM66.08,118.12c-1.89,0-3.44-1.54-3.44-3.44s1.54-3.44,3.44-3.44,3.44,1.54,3.44,3.44-1.54,3.44-3.44,3.44ZM72.12,94.58c-1.9,0-3.44-1.54-3.44-3.44s1.54-3.44,3.44-3.44,3.44,1.54,3.44,3.44-1.54,3.44-3.44,3.44Z"/>
            <path class="cls-1" d="M66.08,67.81c-1.64,0-2.97,1.33-2.97,2.97s1.33,2.97,2.97,2.97,2.97-1.33,2.97-2.97-1.33-2.97-2.97-2.97ZM67.91,71.01h-1.6v1.6c0,.13-.1.23-.23.23s-.23-.11-.23-.23v-1.6h-1.6c-.13,0-.23-.11-.23-.23s.11-.23.23-.23h1.6v-1.6c0-.13.11-.23.23-.23s.23.1.23.23v1.6h1.6c.13,0,.23.11.23.23s-.11.23-.23.23Z"/>
          </g>
          <path d="M66.31,68.95v3.67c0,.13-.1.23-.23.23s-.23-.11-.23-.23v-3.67c0-.13.11-.23.23-.23s.23.1.23.23Z"/>
          <path d="M68.15,70.78c0,.13-.11.23-.23.23h-3.67c-.13,0-.23-.11-.23-.23s.11-.23.23-.23h3.67c.13,0,.23.11.23.23Z"/>
        </g>
        <g>
          <g>
            <path d="M114.61,111.24c-1.89,0-3.44,1.54-3.44,3.44s1.54,3.44,3.44,3.44,3.44-1.54,3.44-3.44-1.54-3.44-3.44-3.44ZM114.61,117.65c-1.64,0-2.97-1.33-2.97-2.97s1.33-2.97,2.97-2.97,2.97,1.33,2.97,2.97-1.33,2.97-2.97,2.97Z"/>
            <path class="cls-1" d="M114.61,111.71c-1.64,0-2.97,1.33-2.97,2.97s1.33,2.97,2.97,2.97,2.97-1.33,2.97-2.97-1.33-2.97-2.97-2.97ZM116.45,114.91h-1.6v1.6c0,.13-.1.23-.23.23s-.23-.11-.23-.23v-1.6h-1.6c-.13,0-.23-.1-.23-.23s.11-.23.23-.23h1.6v-1.6c0-.13.11-.23.23-.23s.23.11.23.23v1.6h1.6c.13,0,.23.11.23.23s-.11.23-.23.23Z"/>
          </g>
          <path d="M114.85,112.84v3.67c0,.13-.1.23-.23.23s-.23-.11-.23-.23v-3.67c0-.13.11-.23.23-.23s.23.11.23.23Z"/>
          <path d="M116.68,114.68c0,.13-.11.23-.23.23h-3.67c-.13,0-.23-.1-.23-.23s.11-.23.23-.23h3.67c.13,0,.23.11.23.23Z"/>
        </g>
        <g>
          <g>
            <path d="M114.61,67.34c-1.89,0-3.44,1.54-3.44,3.44s1.54,3.44,3.44,3.44,3.44-1.54,3.44-3.44-1.54-3.44-3.44-3.44ZM114.61,73.75c-1.64,0-2.97-1.33-2.97-2.97s1.33-2.97,2.97-2.97,2.97,1.33,2.97,2.97-1.33,2.97-2.97,2.97Z"/>
            <path class="cls-1" d="M114.61,67.81c-1.64,0-2.97,1.33-2.97,2.97s1.33,2.97,2.97,2.97,2.97-1.33,2.97-2.97-1.33-2.97-2.97-2.97ZM116.45,71.01h-1.6v1.6c0,.13-.1.23-.23.23s-.23-.11-.23-.23v-1.6h-1.6c-.13,0-.23-.11-.23-.23s.11-.23.23-.23h1.6v-1.6c0-.13.11-.23.23-.23s.23.1.23.23v1.6h1.6c.13,0,.23.11.23.23s-.11.23-.23.23Z"/>
          </g>
          <path d="M114.85,68.95v3.67c0,.13-.1.23-.23.23s-.23-.11-.23-.23v-3.67c0-.13.11-.23.23-.23s.23.1.23.23Z"/>
          <path d="M116.68,70.78c0,.13-.11.23-.23.23h-3.67c-.13,0-.23-.11-.23-.23s.11-.23.23-.23h3.67c.13,0,.23.11.23.23Z"/>
        </g>
        <g>
          <g>
            <path d="M102.34,50.96c-1.9,0-3.44,1.54-3.44,3.44s1.54,3.44,3.44,3.44,3.44-1.54,3.44-3.44-1.54-3.44-3.44-3.44ZM102.34,57.37c-1.64,0-2.97-1.33-2.97-2.97s1.33-2.97,2.97-2.97,2.97,1.33,2.97,2.97-1.33,2.97-2.97,2.97Z"/>
            <path class="cls-1" d="M102.34,51.43c-1.64,0-2.97,1.33-2.97,2.97s1.33,2.97,2.97,2.97,2.97-1.33,2.97-2.97-1.33-2.97-2.97-2.97ZM104.18,54.63h-1.6v1.6c0,.13-.11.23-.23.23s-.23-.1-.23-.23v-1.6h-1.6c-.13,0-.23-.11-.23-.23s.1-.23.23-.23h1.6v-1.6c0-.13.11-.23.23-.23s.23.11.23.23v1.6h1.6c.13,0,.23.11.23.23s-.11.23-.23.23Z"/>
          </g>
          <path d="M102.58,52.56v3.67c0,.13-.11.23-.23.23s-.23-.1-.23-.23v-3.67c0-.13.11-.23.23-.23s.23.11.23.23Z"/>
          <path d="M104.41,54.4c0,.13-.11.23-.23.23h-3.67c-.13,0-.23-.11-.23-.23s.1-.23.23-.23h3.67c.13,0,.23.11.23.23Z"/>
        </g>
        <g>
          <g>
            <path d="M102.34,127.6c-1.9,0-3.44,1.54-3.44,3.44s1.54,3.44,3.44,3.44,3.44-1.54,3.44-3.44-1.54-3.44-3.44-3.44ZM102.34,134.01c-1.64,0-2.97-1.33-2.97-2.97s1.33-2.97,2.97-2.97,2.97,1.33,2.97,2.97-1.33,2.97-2.97,2.97Z"/>
            <path class="cls-1" d="M102.34,128.07c-1.64,0-2.97,1.33-2.97,2.97s1.33,2.97,2.97,2.97,2.97-1.33,2.97-2.97-1.33-2.97-2.97-2.97ZM104.18,131.28h-1.6v1.6c0,.13-.11.23-.23.23s-.23-.11-.23-.23v-1.6h-1.6c-.13,0-.23-.11-.23-.23s.1-.23.23-.23h1.6v-1.6c0-.13.11-.23.23-.23s.23.11.23.23v1.6h1.6c.13,0,.23.1.23.23s-.11.23-.23.23Z"/>
          </g>
          <path d="M102.58,129.21v3.67c0,.13-.11.23-.23.23s-.23-.11-.23-.23v-3.67c0-.13.11-.23.23-.23s.23.11.23.23Z"/>
          <path d="M104.41,131.04c0,.13-.11.23-.23.23h-3.67c-.13,0-.23-.11-.23-.23s.1-.23.23-.23h3.67c.13,0,.23.1.23.23Z"/>
        </g>
        <g>
          <path d="M91.43,70.21v1.41c0,.13-.11.23-.23.23s-.23-.11-.23-.23v-1.41c0-.07.03-.13.07-.17.04-.04.1-.06.16-.06.07,0,.13.03.17.08.04.04.06.1.06.16Z"/>
          <path d="M91.2,107.59c-.13,0-.23.1-.23.23v2.78c0,.13.1.23.23.23s.23-.11.23-.23v-2.78c0-.13-.11-.23-.23-.23ZM91.2,102.02c-.13,0-.23.11-.23.23v2.78c0,.13.1.23.23.23s.23-.1.23-.23v-2.78c0-.13-.11-.23-.23-.23ZM91.2,96.45c-.13,0-.23.11-.23.23v2.79c0,.13.1.23.23.23s.23-.11.23-.23v-2.79c0-.13-.11-.23-.23-.23ZM91.2,90.88c-.13,0-.23.11-.23.23v2.78c0,.13.1.23.23.23s.23-.11.23-.23v-2.78c0-.13-.11-.23-.23-.23ZM91.2,85.31c-.13,0-.23.11-.23.23v2.79c0,.13.1.23.23.23s.23-.11.23-.23v-2.79c0-.13-.11-.23-.23-.23ZM91.2,79.74c-.13,0-.23.1-.23.23v2.78c0,.13.1.23.23.23s.23-.11.23-.23v-2.78c0-.13-.11-.23-.23-.23ZM91.2,74.17c-.13,0-.23.11-.23.23v2.78c0,.13.1.23.23.23s.23-.1.23-.23v-2.78c0-.13-.11-.23-.23-.23Z"/>
          <path d="M91.43,113.4v1.41s0,.03,0,.04c-.01.1-.09.17-.18.19-.01,0-.03,0-.05,0-.04,0-.07,0-.1-.02-.04-.01-.07-.04-.09-.07-.03-.04-.05-.09-.05-.15v-1.41c0-.13.1-.23.23-.23s.23.11.23.23Z"/>
        </g>
        <g>
          <path d="M127.83,32.61c-.13,0-.23-.1-.23-.23v-1.41c0-.13.1-.23.23-.23s.23.1.23.23v1.41c0,.13-.1.23-.23.23Z"/>
          <path d="M127.83,146.81c-.13,0-.23.11-.23.23v2.8c0,.13.11.23.23.23s.23-.11.23-.23v-2.8c0-.13-.11-.23-.23-.23ZM127.83,141.22c-.13,0-.23.1-.23.23v2.8c0,.13.11.23.23.23s.23-.11.23-.23v-2.8c0-.13-.11-.23-.23-.23ZM127.83,135.62c-.13,0-.23.11-.23.23v2.8c0,.13.11.23.23.23s.23-.11.23-.23v-2.8c0-.13-.11-.23-.23-.23ZM127.83,130.03c-.13,0-.23.11-.23.23v2.8c0,.13.11.23.23.23s.23-.1.23-.23v-2.8c0-.13-.11-.23-.23-.23ZM127.83,124.44c-.13,0-.23.11-.23.23v2.8c0,.13.11.23.23.23s.23-.11.23-.23v-2.8c0-.13-.11-.23-.23-.23ZM127.83,118.84c-.13,0-.23.1-.23.23v2.8c0,.13.11.23.23.23s.23-.11.23-.23v-2.8c0-.13-.11-.23-.23-.23ZM127.83,113.25c-.13,0-.23.11-.23.23v2.8c0,.13.11.23.23.23s.23-.11.23-.23v-2.8c0-.13-.11-.23-.23-.23ZM127.83,107.66c-.13,0-.23.11-.23.23v2.8c0,.13.11.23.23.23s.23-.1.23-.23v-2.8c0-.13-.11-.23-.23-.23ZM127.83,102.06c-.13,0-.23.11-.23.23v2.8c0,.13.11.23.23.23s.23-.11.23-.23v-2.8c0-.13-.11-.23-.23-.23ZM127.83,96.47c-.13,0-.23.1-.23.23v2.8c0,.13.11.23.23.23s.23-.11.23-.23v-2.8c0-.13-.11-.23-.23-.23ZM127.83,90.87c-.13,0-.23.11-.23.23v2.8c0,.13.11.23.23.23s.23-.11.23-.23v-2.8c0-.13-.11-.23-.23-.23ZM127.83,85.28c-.13,0-.23.11-.23.23v2.8c0,.13.11.23.23.23s.23-.1.23-.23v-2.8c0-.13-.11-.23-.23-.23ZM127.83,79.69c-.13,0-.23.11-.23.23v2.8c0,.13.11.23.23.23s.23-.11.23-.23v-2.8c0-.13-.11-.23-.23-.23ZM127.83,74.1c-.13,0-.23.1-.23.23v2.8c0,.13.11.23.23.23s.23-.11.23-.23v-2.8c0-.13-.11-.23-.23-.23ZM127.83,68.5c-.13,0-.23.11-.23.23v2.8c0,.13.11.23.23.23s.23-.11.23-.23v-2.8c0-.13-.11-.23-.23-.23ZM127.83,62.91c-.13,0-.23.11-.23.23v2.8c0,.13.11.23.23.23s.23-.1.23-.23v-2.8c0-.13-.11-.23-.23-.23ZM127.83,57.32c-.13,0-.23.11-.23.23v2.8c0,.13.11.23.23.23s.23-.11.23-.23v-2.8c0-.13-.11-.23-.23-.23ZM127.83,51.72c-.13,0-.23.1-.23.23v2.8c0,.13.11.23.23.23s.23-.11.23-.23v-2.8c0-.13-.11-.23-.23-.23ZM127.83,46.13c-.13,0-.23.11-.23.23v2.8c0,.13.11.23.23.23s.23-.11.23-.23v-2.8c0-.13-.11-.23-.23-.23ZM127.83,40.54c-.13,0-.23.11-.23.23v2.8c0,.13.11.23.23.23s.23-.1.23-.23v-2.8c0-.13-.11-.23-.23-.23ZM127.83,34.94c-.13,0-.23.11-.23.23v2.8c0,.13.11.23.23.23s.23-.11.23-.23v-2.8c0-.13-.11-.23-.23-.23Z"/>
          <path d="M127.83,154.28c-.13,0-.23-.1-.23-.23v-1.41c0-.13.1-.23.23-.23s.23.1.23.23v1.41c0,.13-.1.23-.23.23Z"/>
        </g>
        <g>
          <path d="M91.2,139.36c-.13,0-.23-.1-.23-.23v-1.41c0-.13.1-.23.23-.23s.23.1.23.23v1.41c0,.13-.1.23-.23.23Z"/>
          <path d="M91.2,146.59c-.13,0-.23.11-.23.23v2.57c0,.13.1.23.23.23s.23-.11.23-.23v-2.57c0-.13-.11-.23-.23-.23ZM91.2,141.46c-.13,0-.23.1-.23.23v2.56c0,.13.1.23.23.23s.23-.1.23-.23v-2.56c0-.13-.11-.23-.23-.23Z"/>
          <path d="M91.2,153.6c-.13,0-.23-.1-.23-.23v-1.41c0-.13.1-.23.23-.23s.23.1.23.23v1.41c0,.13-.1.23-.23.23Z"/>
        </g>
        <g>
          <path d="M91.2,32.61c-.13,0-.23-.1-.23-.23v-1.41c0-.13.1-.23.23-.23s.23.1.23.23v1.41c0,.13-.1.23-.23.23Z"/>
          <path d="M91.2,39.45c-.13,0-.23.1-.23.23v2.43c0,.13.1.23.23.23s.23-.11.23-.23v-2.43c0-.13-.11-.23-.23-.23ZM91.2,34.58c-.13,0-.23.11-.23.23v2.44c0,.13.1.23.23.23s.23-.11.23-.23v-2.44c0-.13-.11-.23-.23-.23Z"/>
          <path d="M91.2,46.19c-.13,0-.23-.1-.23-.23v-1.41c0-.13.1-.23.23-.23s.23.1.23.23v1.41c0,.13-.1.23-.23.23Z"/>
        </g>
      </g>
      <circle class="cls-2" cx="92.51" cy="92.51" r="92.26"/>
    </g>
  </g>
</svg>