<?xml version="1.0" encoding="UTF-8"?>
<svg id="Livello_2" data-name="Livello 2" xmlns="http://www.w3.org/2000/svg" viewBox="0 0 185.02 185.02">
  <defs>
    <style>
      .cls-1 {
        fill: #606060;
      }

      .cls-2 {
        fill: none;
        stroke: #000;
        stroke-dasharray: 4;
        stroke-linecap: round;
        stroke-linejoin: round;
        stroke-width: .5px;
      }

      .cls-3 {
        fill: #c7c7c7;
      }
    </style>
  </defs>
  <g id="Livello_1-2" data-name="Livello 1">
    <g>
      <g>
        <g>
          <path class="cls-3" d="M121.02,28.28l-5.21-4.83-2.72.73-38.81,10.51-2.37.52v129.44l4.14,4.07c.21.28.45.5.71.66.52.35,1.09.47,1.56.5.59.02,1.02-.09,1.02-.09l41.55-10.3c.19-.09.52-.31.76-.73.26-.5.26-.99.24-1.25V30.89c0-1.78-.88-2.6-.88-2.6ZM113.09,33.09l-33.95,8.93v117.27"/>
          <path d="M78.5,170.02c-.05,0-.11,0-.16,0-.62-.03-1.17-.21-1.63-.52-.28-.18-.52-.4-.73-.68l-4.14-4.07s-.04-.06-.04-.09V35.22c0-.06.04-.11.1-.12l2.37-.52,38.8-10.51,2.72-.73s.09,0,.12.03l5.21,4.83s0,0,0,0c.04.04.92.89.92,2.69v126.62c.02.26.02.79-.25,1.31-.24.44-.58.67-.81.79,0,0-.02,0-.03,0l-41.55,10.3s-.37.1-.89.1ZM72.04,164.61l4.11,4.04s0,0,.01.01c.2.26.42.47.68.63.42.29.93.45,1.5.48.56.02.97-.09.98-.09l41.54-10.3c.2-.1.49-.31.69-.68.24-.46.24-.94.22-1.18V30.89c0-1.69-.82-2.5-.84-2.51l-5.16-4.78-2.66.72-38.81,10.51-2.28.5v129.29ZM79.14,159.41c-.07,0-.12-.06-.12-.12V42.01c0-.06.04-.11.09-.12l33.95-8.93c.07-.02.13.02.15.09.02.07-.02.13-.09.15l-33.86,8.9v117.17c0,.07-.06.12-.12.12Z"/>
        </g>
        <path d="M78.53,40.26c-.06,0-.12,0-.2-.02-.39-.07-.98-.3-1.29-.43-.16-.07-.26-.11-.26-.11-.01,0-.02-.01-.03-.02l-4.91-4.36c-.05-.05-.06-.12-.01-.18.05-.05.12-.06.18-.01l4.9,4.34s.12.05.24.1c.31.13.88.35,1.24.42.06,0,.1.02.14.02l41.74-11.54c.07-.02.13.02.15.09.02.07-.02.13-.09.15l-41.76,11.54s-.02,0-.04,0Z"/>
        <path d="M76.77,169.52s-.06-.01-.09-.04c-1.03-1.06-.9-1.99-.87-2.12V40.97c0-.95,1.19-1.37,1.24-1.38.06-.02.14.01.16.08.02.06-.01.14-.08.16-.01,0-1.08.38-1.08,1.15v126.41s0,.02,0,.03c0,.04-.18.89.81,1.91.05.05.05.13,0,.18-.02.02-.06.04-.09.04Z"/>
        <path d="M78.34,170s-.09-.03-.11-.08c-.03-.06,0-.14.07-.16.83-.34.74-1.05.73-1.08,0,0,0-.01,0-.02V42.01c0-1.22-.72-1.77-.75-1.79-.05-.04-.07-.12-.03-.17.04-.05.12-.07.17-.03.03.03.85.64.85,1.99v126.65c.01.11.06.94-.89,1.33-.02,0-.03,0-.05,0Z"/>
        <path d="M78.76,168.82c-1.75,0-2.88-1.3-2.93-1.36l-4.01-3.95s-.05-.13,0-.18c.05-.05.13-.05.18,0l4.02,3.96s1.27,1.47,3.11,1.26l41.38-10.18c.32-.07.59-.22.81-.43.22-.22.39-.52.47-.86.02-.07.08-.11.15-.09.07.02.11.08.09.15-.09.38-.28.72-.53.98-.25.24-.57.42-.92.5l-41.38,10.19s-.01,0-.02,0c-.14.02-.27.02-.41.02Z"/>
        <path d="M78.61,42.22c-1.27,0-2.69-1.1-2.76-1.16,0,0,0,0,0,0l-4.02-3.88s-.05-.13,0-.18c.05-.05.12-.05.17,0l4.02,3.88c.1.08,1.89,1.43,3.1,1.02l42.4-11.16c-.47-.53-1.77-2.13-1.13-2.92.04-.05.12-.06.17-.02.05.04.06.12.02.17-.5.62.74,2.19,1.26,2.74.03.03.04.08.03.12-.01.04-.05.07-.09.09l-42.59,11.21c-.18.06-.38.09-.58.09Z"/>
        <g>
          <path class="cls-3" d="M68.84,32.52v129.34l-5.11-5.02s-.62-.54-.62-1.7V29.06s-.12-1.23.76-2.06c-.17.97.45,1.49.45,1.49l4.52,4.02Z"/>
          <path d="M68.84,161.99s-.06-.01-.09-.04l-5.11-5.02s-.65-.59-.65-1.79V29.06s-.11-1.29.8-2.15c.04-.04.1-.04.14-.02.05.03.07.08.06.13-.15.88.39,1.36.41,1.38l4.52,4.03s.04.06.04.09v129.34s-.03.1-.08.11c-.02,0-.03,0-.05,0ZM63.72,27.36c-.56.75-.48,1.68-.48,1.69v126.09c0,1.08.57,1.61.57,1.61l4.91,4.82V32.57l-4.48-3.99s-.51-.44-.52-1.23Z"/>
        </g>
        <g>
          <path class="cls-3" d="M113.09,20.8l-44.25,11.7v.02l-4.52-4.02s-.62-.52-.45-1.49v-.02c.35-.33.85-.62,1.61-.73l40.34-11.01c.12-.05.66-.26,1.37.07.4.19.69.47.83.64l5.07,4.85Z"/>
          <path d="M68.84,32.64s-.06-.01-.08-.03l-4.52-4.02s-.66-.57-.49-1.59h0s.01-.08.04-.1c.43-.41.98-.66,1.67-.76l40.33-11.01c.27-.11.8-.23,1.46.08.43.2.73.51.87.67l5.06,4.85s.05.08.03.12c-.01.04-.04.08-.09.09l-44.19,11.68s-.03.03-.04.03c-.02,0-.03.01-.05.01ZM63.99,27.04c-.14.88.39,1.34.41,1.36l4.45,3.96,43.99-11.63-4.91-4.7c-.14-.16-.41-.43-.8-.62-.58-.27-1.05-.16-1.27-.07,0,0,0,0-.01,0l-40.34,11.01s0,0-.01,0c-.62.1-1.12.32-1.51.67Z"/>
        </g>
        <g>
          <polygon class="cls-1" points="113.09 20.8 113.09 24.19 74.29 34.7 71.92 35.22 71.92 161.08 68.84 161.86 68.84 32.5 113.09 20.8"/>
          <path d="M68.84,161.99s-.05,0-.08-.03c-.03-.02-.05-.06-.05-.1V32.5c0-.06.04-.11.09-.12l44.25-11.7s.08,0,.11.02c.03.02.05.06.05.1v3.39c0,.06-.04.11-.09.12l-38.81,10.51-2.28.5v125.76c0,.06-.04.11-.09.12l-3.08.78s-.02,0-.03,0ZM68.97,32.59v129.11l2.83-.72V35.22c0-.06.04-.11.1-.12l2.37-.52,38.71-10.49v-3.13l-44,11.63Z"/>
        </g>
      </g>
      <path d="M88.68,153.52s0,0-.01,0c-.8-.08-1.5-.6-1.82-1.34-.03-.06,0-.14.07-.16.06-.03.14,0,.16.07.28.66.9,1.12,1.61,1.19.07,0,.12.07.11.14,0,.06-.06.11-.12.11ZM90.85,153.08c-.05,0-.1-.04-.12-.09-.02-.07.02-.13.09-.15l2.16-.58c.07-.02.13.02.15.09.02.07-.02.13-.09.15l-2.16.58s-.02,0-.03,0ZM95.17,151.93c-.05,0-.1-.04-.12-.09-.02-.07.02-.13.09-.15l2.16-.58c.07-.02.13.02.15.09.02.07-.02.13-.09.15l-2.16.58s-.02,0-.03,0ZM99.49,150.77c-.05,0-.1-.04-.12-.09-.02-.07.02-.13.09-.15l2.16-.58c.07-.02.13.02.15.09.02.07-.02.13-.09.15l-2.16.58s-.02,0-.03,0ZM86.79,150.05c-.07,0-.12-.06-.12-.12v-2.23c0-.07.06-.12.12-.12s.12.06.12.12v2.23c0,.07-.06.12-.12.12ZM103.8,149.61c-.05,0-.1-.04-.12-.09-.02-.07.02-.13.09-.15l2.16-.58c.07-.02.13.02.15.09.02.07-.02.13-.09.15l-2.16.58s-.02,0-.03,0ZM108.12,148.46c-.05,0-.1-.04-.12-.09-.02-.07.02-.13.09-.15l2.16-.58c.07-.02.13.02.15.09.02.07-.02.13-.09.15l-2.16.58s-.02,0-.03,0ZM112.43,147.3c-.05,0-.1-.04-.12-.09-.02-.07.02-.13.09-.15l2.16-.58c.33-.09.64-.26.88-.51.05-.05.13-.05.18,0,.05.05.05.13,0,.18-.27.27-.62.47-.99.57l-2.16.58s-.02,0-.03,0ZM86.79,145.58c-.07,0-.12-.06-.12-.12v-2.23c0-.07.06-.12.12-.12s.12.06.12.12v2.23c0,.07-.06.12-.12.12ZM116.15,144.12c-.07,0-.12-.06-.12-.12v-2.23c0-.07.06-.12.12-.12s.12.06.12.12v2.23c0,.07-.06.12-.12.12ZM86.79,141.11c-.07,0-.12-.06-.12-.12v-2.23c0-.07.06-.12.12-.12s.12.06.12.12v2.23c0,.07-.06.12-.12.12ZM116.15,139.65c-.07,0-.12-.06-.12-.12v-2.23c0-.07.06-.12.12-.12s.12.06.12.12v2.23c0,.07-.06.12-.12.12ZM86.79,136.64c-.07,0-.12-.06-.12-.12v-2.23c0-.07.06-.12.12-.12s.12.06.12.12v2.23c0,.07-.06.12-.12.12ZM116.15,135.18c-.07,0-.12-.06-.12-.12v-2.23c0-.07.06-.12.12-.12s.12.06.12.12v2.23c0,.07-.06.12-.12.12ZM86.79,132.17c-.07,0-.12-.06-.12-.12v-2.23c0-.07.06-.12.12-.12s.12.06.12.12v2.23c0,.07-.06.12-.12.12ZM116.15,130.72c-.07,0-.12-.06-.12-.12v-2.23c0-.07.06-.12.12-.12s.12.06.12.12v2.23c0,.07-.06.12-.12.12ZM86.79,127.71c-.07,0-.12-.06-.12-.12v-2.23c0-.07.06-.12.12-.12s.12.06.12.12v2.23c0,.07-.06.12-.12.12ZM116.15,126.25c-.07,0-.12-.06-.12-.12v-2.23c0-.07.06-.12.12-.12s.12.06.12.12v2.23c0,.07-.06.12-.12.12ZM86.79,123.24c-.07,0-.12-.06-.12-.12v-2.23c0-.07.06-.12.12-.12s.12.06.12.12v2.23c0,.07-.06.12-.12.12ZM116.15,121.78c-.07,0-.12-.06-.12-.12v-2.23c0-.07.06-.12.12-.12s.12.06.12.12v2.23c0,.07-.06.12-.12.12ZM86.79,118.77c-.07,0-.12-.06-.12-.12v-2.23c0-.07.06-.12.12-.12s.12.06.12.12v2.23c0,.07-.06.12-.12.12ZM116.15,117.31c-.07,0-.12-.06-.12-.12v-2.23c0-.07.06-.12.12-.12s.12.06.12.12v2.23c0,.07-.06.12-.12.12ZM86.79,114.3c-.07,0-.12-.06-.12-.12v-2.23c0-.07.06-.12.12-.12s.12.06.12.12v2.23c0,.07-.06.12-.12.12ZM116.15,112.84c-.07,0-.12-.06-.12-.12v-2.23c0-.07.06-.12.12-.12s.12.06.12.12v2.23c0,.07-.06.12-.12.12ZM86.79,109.83c-.07,0-.12-.06-.12-.12v-2.23c0-.07.06-.12.12-.12s.12.06.12.12v2.23c0,.07-.06.12-.12.12ZM116.15,108.38c-.07,0-.12-.06-.12-.12v-2.23c0-.07.06-.12.12-.12s.12.06.12.12v2.23c0,.07-.06.12-.12.12ZM86.79,105.37c-.07,0-.12-.06-.12-.12v-2.23c0-.07.06-.12.12-.12s.12.06.12.12v2.23c0,.07-.06.12-.12.12ZM116.15,103.91c-.07,0-.12-.06-.12-.12v-2.23c0-.07.06-.12.12-.12s.12.06.12.12v2.23c0,.07-.06.12-.12.12ZM86.79,100.9c-.07,0-.12-.06-.12-.12v-2.23c0-.07.06-.12.12-.12s.12.06.12.12v2.23c0,.07-.06.12-.12.12ZM116.15,99.44c-.07,0-.12-.06-.12-.12v-2.23c0-.07.06-.12.12-.12s.12.06.12.12v2.23c0,.07-.06.12-.12.12ZM86.79,96.43c-.07,0-.12-.06-.12-.12v-2.23c0-.07.06-.12.12-.12s.12.06.12.12v2.23c0,.07-.06.12-.12.12ZM116.15,94.97c-.07,0-.12-.06-.12-.12v-2.23c0-.07.06-.12.12-.12s.12.06.12.12v2.23c0,.07-.06.12-.12.12ZM86.79,91.96c-.07,0-.12-.06-.12-.12v-2.23c0-.07.06-.12.12-.12s.12.06.12.12v2.23c0,.07-.06.12-.12.12ZM116.15,90.5c-.07,0-.12-.06-.12-.12v-2.23c0-.07.06-.12.12-.12s.12.06.12.12v2.23c0,.07-.06.12-.12.12ZM86.79,87.49c-.07,0-.12-.06-.12-.12v-2.23c0-.07.06-.12.12-.12s.12.06.12.12v2.23c0,.07-.06.12-.12.12ZM116.15,86.04c-.07,0-.12-.06-.12-.12v-2.23c0-.07.06-.12.12-.12s.12.06.12.12v2.23c0,.07-.06.12-.12.12ZM86.79,83.03c-.07,0-.12-.06-.12-.12v-2.23c0-.07.06-.12.12-.12s.12.06.12.12v2.23c0,.07-.06.12-.12.12ZM116.15,81.57c-.07,0-.12-.06-.12-.12v-2.23c0-.07.06-.12.12-.12s.12.06.12.12v2.23c0,.07-.06.12-.12.12ZM86.79,78.56c-.07,0-.12-.06-.12-.12v-2.23c0-.07.06-.12.12-.12s.12.06.12.12v2.23c0,.07-.06.12-.12.12ZM116.15,77.1c-.07,0-.12-.06-.12-.12v-2.23c0-.07.06-.12.12-.12s.12.06.12.12v2.23c0,.07-.06.12-.12.12ZM86.79,74.09c-.07,0-.12-.06-.12-.12v-2.23c0-.07.06-.12.12-.12s.12.06.12.12v2.23c0,.07-.06.12-.12.12ZM116.15,72.63c-.07,0-.12-.06-.12-.12v-2.23c0-.07.06-.12.12-.12s.12.06.12.12v2.23c0,.07-.06.12-.12.12ZM86.79,69.62c-.07,0-.12-.06-.12-.12v-2.23c0-.07.06-.12.12-.12s.12.06.12.12v2.23c0,.07-.06.12-.12.12ZM116.15,68.16c-.07,0-.12-.06-.12-.12v-2.23c0-.07.06-.12.12-.12s.12.06.12.12v2.23c0,.07-.06.12-.12.12ZM86.79,65.16c-.07,0-.12-.06-.12-.12v-2.23c0-.07.06-.12.12-.12s.12.06.12.12v2.23c0,.07-.06.12-.12.12ZM116.15,63.7c-.07,0-.12-.06-.12-.12v-2.23c0-.07.06-.12.12-.12s.12.06.12.12v2.23c0,.07-.06.12-.12.12ZM86.79,60.69c-.07,0-.12-.06-.12-.12v-2.23c0-.07.06-.12.12-.12s.12.06.12.12v2.23c0,.07-.06.12-.12.12ZM116.15,59.23c-.07,0-.12-.06-.12-.12v-2.23c0-.07.06-.12.12-.12s.12.06.12.12v2.23c0,.07-.06.12-.12.12ZM86.79,56.22c-.07,0-.12-.06-.12-.12v-.02c0-.8.43-1.54,1.12-1.93.06-.03.14-.01.17.05.03.06.01.14-.05.17-.61.35-.99,1.01-.99,1.72v.02c0,.07-.06.12-.12.12ZM116.15,54.76c-.07,0-.12-.06-.12-.12v-2.23c0-.07.06-.12.12-.12s.12.06.12.12v2.23c0,.07-.06.12-.12.12ZM89.98,53.73c-.05,0-.1-.04-.12-.09-.02-.07.02-.13.09-.15l2.16-.58c.07-.02.13.02.15.09s-.02.13-.09.15l-2.16.58s-.02,0-.03,0ZM94.3,52.57c-.05,0-.1-.04-.12-.09-.02-.07.02-.13.09-.15l2.16-.58c.07-.02.13.02.15.09s-.02.13-.09.15l-2.16.58s-.02,0-.03,0ZM98.62,51.41c-.05,0-.1-.04-.12-.09-.02-.07.02-.13.09-.15l2.16-.58c.07-.02.13.02.15.09.02.07-.02.13-.09.15l-2.16.58s-.02,0-.03,0ZM116.15,50.29c-.07,0-.12-.06-.12-.12v-.84c0-.45-.15-.87-.42-1.22-.04-.05-.03-.13.02-.17.05-.04.13-.03.17.02.31.39.47.87.47,1.37v.84c0,.07-.06.12-.12.12ZM102.93,50.26c-.05,0-.1-.04-.12-.09-.02-.07.02-.13.09-.15l2.16-.58c.07-.02.13.02.15.09.02.07-.02.13-.09.15l-2.16.58s-.02,0-.03,0ZM107.25,49.1c-.05,0-.1-.04-.12-.09-.02-.07.02-.13.09-.15l2.16-.58c.07-.02.13.02.15.09.02.07-.02.13-.09.15l-2.16.58s-.02,0-.03,0ZM111.56,47.94c-.05,0-.1-.04-.12-.09-.02-.07.02-.13.09-.15l1.94-.52c.08-.02.16-.04.24-.05.07-.01.13.04.14.1.01.07-.04.13-.1.14-.07.01-.14.03-.21.04l-1.94.52s-.02,0-.03,0Z"/>
      <g>
        <path d="M99.48,80.63c-.13,0-.26,0-.4-.01-.07,0-.12-.06-.12-.13,0-.07.06-.12.13-.12.7.04,1.44-.03,2.18-.22.07-.02.13.02.15.09s-.02.13-.09.15c-.63.16-1.25.23-1.86.23ZM96.94,80.09s-.04,0-.05-.01c-.7-.33-1.31-.79-1.81-1.37-.04-.05-.04-.13.01-.18.05-.04.13-.04.18.01.47.55,1.06.99,1.72,1.31.06.03.09.1.06.16-.02.05-.07.07-.11.07ZM103.39,79.61s-.09-.02-.11-.07c-.03-.06,0-.14.05-.17.64-.34,1.25-.75,1.83-1.23.05-.04.13-.04.17.02.04.05.04.13-.02.17-.59.49-1.22.91-1.87,1.26-.02,0-.04.01-.06.01ZM94.1,76.81c-.05,0-.1-.03-.12-.09-.21-.65-.31-1.36-.31-2.11,0-.05,0-.09,0-.14,0-.07.06-.12.12-.12h0c.07,0,.12.06.12.13,0,.04,0,.09,0,.13,0,.72.1,1.4.3,2.03.02.07-.02.14-.08.16-.01,0-.02,0-.04,0ZM106.81,76.77s-.06,0-.08-.03c-.05-.04-.06-.12-.02-.17.47-.58.88-1.2,1.21-1.84.03-.06.11-.08.17-.05.06.03.08.11.05.17-.34.66-.76,1.29-1.24,1.88-.02.03-.06.05-.1.05ZM108.85,72.84s-.02,0-.03,0c-.07-.02-.11-.09-.09-.15.2-.73.29-1.46.29-2.17,0-.07.06-.12.12-.12s.12.06.12.12c0,.73-.1,1.49-.3,2.24-.01.06-.06.09-.12.09ZM94.13,72.41s-.02,0-.03,0c-.07-.02-.1-.09-.09-.15.2-.71.49-1.41.85-2.09.03-.06.11-.08.17-.05.06.03.08.11.05.17-.36.66-.64,1.35-.83,2.04-.02.05-.07.09-.12.09ZM108.88,68.69c-.05,0-.1-.04-.12-.09-.21-.72-.55-1.37-1-1.93-.04-.05-.04-.13.02-.17.05-.04.13-.04.17.02.47.58.82,1.26,1.04,2.01.02.07-.02.13-.08.15-.01,0-.02,0-.03,0ZM96.22,68.5s-.06,0-.08-.03c-.05-.04-.06-.12-.02-.17.48-.58,1.02-1.12,1.6-1.59.05-.04.13-.04.17.02.04.05.04.13-.02.17-.57.46-1.09.98-1.57,1.55-.02.03-.06.04-.1.04ZM99.68,65.71s-.09-.02-.11-.07c-.03-.06,0-.14.05-.17.59-.3,1.2-.54,1.82-.7.1-.03.2-.05.3-.07.07-.02.13.03.15.09s-.03.13-.09.15c-.1.02-.19.05-.29.07-.6.16-1.2.39-1.77.68-.02,0-.04.01-.06.01ZM106.13,65.34s-.04,0-.06-.01c-.64-.32-1.34-.51-2.1-.57-.07,0-.12-.07-.11-.13,0-.07.07-.12.13-.11.79.06,1.52.26,2.19.59.06.03.09.1.06.17-.02.04-.07.07-.11.07Z"/>
        <path d="M99.48,136.14c-.13,0-.27,0-.4-.01-.07,0-.12-.06-.12-.13,0-.07.06-.12.13-.12.7.04,1.44-.03,2.18-.22.07-.02.13.02.15.09.02.07-.02.13-.09.15-.63.16-1.25.23-1.86.23ZM96.94,135.6s-.04,0-.05-.01c-.7-.33-1.31-.79-1.81-1.37-.04-.05-.04-.13.01-.18.05-.04.13-.04.18.01.47.55,1.06.99,1.72,1.31.06.03.09.1.06.16-.02.05-.07.07-.11.07ZM103.39,135.12s-.09-.02-.11-.07c-.03-.06,0-.14.05-.17.64-.34,1.25-.75,1.83-1.23.05-.04.13-.04.17.02.04.05.04.13-.02.17-.59.49-1.22.91-1.87,1.26-.02,0-.04.01-.06.01ZM94.1,132.32c-.05,0-.1-.03-.12-.09-.21-.65-.31-1.36-.31-2.11,0-.05,0-.09,0-.14,0-.07.06-.12.12-.12h0c.07,0,.12.06.12.13,0,.04,0,.09,0,.13,0,.72.1,1.4.3,2.03.02.07-.02.14-.08.16-.01,0-.02,0-.04,0ZM106.81,132.29s-.06,0-.08-.03c-.05-.04-.06-.12-.02-.17.47-.58.88-1.2,1.21-1.84.03-.06.11-.08.17-.05.06.03.08.11.05.17-.34.66-.76,1.29-1.24,1.88-.02.03-.06.05-.1.05ZM108.85,128.35s-.02,0-.03,0c-.07-.02-.11-.09-.09-.15.2-.73.29-1.46.29-2.17,0-.07.06-.12.12-.12s.12.06.12.12c0,.73-.1,1.49-.3,2.24-.01.06-.06.09-.12.09ZM94.13,127.92s-.02,0-.03,0c-.07-.02-.1-.09-.09-.15.2-.71.49-1.41.85-2.09.03-.06.11-.08.17-.05.06.03.08.11.05.17-.36.66-.64,1.35-.83,2.04-.02.05-.07.09-.12.09ZM108.88,124.2c-.05,0-.1-.04-.12-.09-.21-.72-.55-1.37-1-1.93-.04-.05-.04-.13.02-.17.05-.04.13-.04.17.02.47.58.82,1.26,1.04,2.01.02.07-.02.13-.08.15-.01,0-.02,0-.03,0ZM96.22,124.01s-.06,0-.08-.03c-.05-.04-.06-.12-.02-.17.48-.58,1.02-1.12,1.6-1.59.05-.04.13-.04.17.02.04.05.04.13-.02.17-.57.46-1.09.98-1.57,1.55-.02.03-.06.04-.1.04ZM99.68,121.22s-.09-.02-.11-.07c-.03-.06,0-.14.05-.17.59-.3,1.21-.54,1.82-.7.1-.03.2-.05.3-.07.07-.02.13.03.15.09.02.07-.03.13-.09.15-.1.02-.19.05-.29.07-.6.16-1.2.39-1.77.68-.02,0-.04.01-.06.01ZM106.13,120.85s-.04,0-.06-.01c-.64-.32-1.34-.51-2.1-.57-.07,0-.12-.07-.11-.13,0-.07.07-.12.13-.11.79.06,1.52.26,2.19.59.06.03.09.1.06.17-.02.04-.07.07-.11.07Z"/>
      </g>
    </g>
    <circle class="cls-2" cx="92.51" cy="92.51" r="92.26"/>
  </g>
</svg>