<?xml version="1.0" encoding="UTF-8"?>
<svg id="Livello_2" data-name="Livello 2" xmlns="http://www.w3.org/2000/svg" viewBox="0 0 667.42 102.58">
  <defs>
    <style>
      .cls-1 {
        fill: #fff;
      }
    </style>
  </defs>
  <g id="Livello_1-2" data-name="Livello 1">
    <g>
      <path class="cls-1" d="M25.91,35.03c-1.68-3.84-5.04-5.52-8.52-5.52-5.52,0-8.28,4.2-8.28,7.8,0,4.8,3.84,6.36,8.64,8.28,4.92,1.92,9.48,3.24,12.6,7.2,2.04,2.52,2.52,5.16,2.52,7.92,0,11.16-8.4,15.6-15.96,15.6-8.16,0-14.88-4.8-16.92-12.96l4.68-1.44c1.68,6.48,6.84,9.84,12.24,9.84,6.24,0,10.92-4.44,10.92-10.8,0-5.52-3.48-7.56-10.92-10.56-4.92-2.04-8.52-3.6-10.68-6.48-1.08-1.44-2.16-3.48-2.16-6.36,0-7.44,5.64-12.6,13.08-12.6,5.76,0,10.56,2.64,12.84,7.92l-4.08,2.16Z"/>
      <path class="cls-1" d="M49.91,102.58h-4.8V26.03h4.8v8.52c4.68-6.36,11.4-9.6,19.2-9.6,14.76,0,23.75,11.04,23.75,25.2s-9.12,26.15-24,26.15c-12.12,0-17.52-7.68-18.96-10.08v36.35ZM87.82,50.15c0-13.44-8.88-20.64-18.96-20.64s-19.2,6.84-19.2,20.4c0,12.24,6.72,21.84,19.08,21.84s19.08-9.6,19.08-21.6Z"/>
      <path class="cls-1" d="M146.85,26.03h4.8v48.95h-4.8v-8.76c-4.92,7.56-12.72,10.08-19.08,10.08-12.84,0-23.88-9.72-23.88-25.79,0-15.12,9.6-25.56,23.88-25.56,7.68,0,14.4,3,19.08,9.6v-8.52ZM108.94,50.15c0,11.04,6.84,21.6,19.2,21.6s18.96-10.32,18.96-21.6c0-14.52-10.68-20.64-19.08-20.64-9.72,0-19.08,7.32-19.08,20.64Z"/>
      <path class="cls-1" d="M171.57,70.42h39.35v4.56h-49.67l40.07-44.39h-33.83v-4.56h43.67l-39.59,44.39Z"/>
      <path class="cls-1" d="M220.05,9.71c0-2.64,1.92-4.44,4.32-4.44s4.32,1.8,4.32,4.44-1.92,4.44-4.32,4.44-4.32-1.8-4.32-4.44ZM226.77,26.03v48.95h-4.8V26.03h4.8Z"/>
      <path class="cls-1" d="M292.27,50.63c0,14.52-11.16,25.67-25.67,25.67s-25.68-11.16-25.68-25.67,11.16-25.68,25.68-25.68,25.67,11.16,25.67,25.68ZM287.23,50.63c0-11.88-8.88-21.12-20.64-21.12s-20.64,9.24-20.64,21.12,8.88,21.12,20.64,21.12,20.64-9.24,20.64-21.12Z"/>
      <path class="cls-1" d="M342.18,24.47h11.76v77.99h-11.76v-33.11c-5.16,6.36-11.52,7.2-15.12,7.2-15.6,0-24.48-12.84-24.48-26.88,0-16.44,11.28-26.51,24.6-26.51,5.04,0,10.68,1.68,15,6.84v-5.52ZM314.59,49.91c0,8.76,5.52,16.08,14.04,16.08,7.44,0,14.28-5.4,14.28-15.96s-6.84-16.32-14.28-16.32c-8.52,0-14.04,7.2-14.04,16.2Z"/>
      <path class="cls-1" d="M380.58,24.47v28.91c0,3,.12,6.48,2.16,9.12,1.56,2.04,4.32,3.48,7.68,3.48s6.12-1.44,7.68-3.48c2.04-2.64,2.16-6.12,2.16-9.12v-28.91h11.76v29.27c0,6.48-.72,11.88-5.4,16.56-4.56,4.56-10.8,6.24-16.44,6.24-5.16,0-11.4-1.56-15.96-6.24-4.68-4.68-5.4-10.08-5.4-16.56v-29.27h11.76Z"/>
      <path class="cls-1" d="M463.85,24.47h11.76v50.51h-11.76v-5.28c-5.16,6-11.52,6.84-15.12,6.84-15.6,0-24.48-12.96-24.48-26.88,0-16.44,11.28-26.51,24.6-26.51,3.72,0,10.2.96,15,7.2v-5.88ZM436.25,49.91c0,8.76,5.52,16.08,14.04,16.08,7.44,0,14.28-5.4,14.28-15.96s-6.84-16.32-14.28-16.32c-8.52,0-14.04,7.2-14.04,16.2Z"/>
      <path class="cls-1" d="M527.44.25l11.76-.25v74.98h-11.76v-5.28c-5.16,6-11.52,6.84-15.12,6.84-15.6,0-24.48-12.96-24.48-26.88,0-16.44,11.28-26.51,24.6-26.51,3.72,0,10.2.96,15,7.53V.25ZM499.84,49.91c0,8.76,5.52,16.08,14.04,16.08,7.44,0,14.28-5.4,14.28-15.96s-6.84-16.32-14.28-16.32c-8.52,0-14.04,7.2-14.04,16.2Z"/>
      <path class="cls-1" d="M554.07,24.47h11.76v4.56c1.32-1.56,3.24-3.24,4.92-4.2,2.28-1.32,4.56-1.68,7.2-1.68,2.88,0,6,.48,9.24,2.4l-4.8,10.68c-2.64-1.68-4.8-1.8-6-1.8-2.52,0-5.04.36-7.32,2.76-3.24,3.48-3.24,8.28-3.24,11.64v26.16h-11.76V24.47Z"/>
      <path class="cls-1" d="M642.86,49.79c0,15.48-11.76,26.76-27,26.76s-26.99-11.28-26.99-26.76,11.76-26.64,26.99-26.64,27,11.04,27,26.64ZM630.86,49.91c0-11.52-7.56-16.2-15-16.2s-15,4.68-15,16.2c0,9.72,5.76,16.08,15,16.08s15-6.36,15-16.08Z"/>
    </g>
    <g>
      <path class="cls-1" d="M653.64,16.75v4.78h-2.17v-11.58h4.92c2.48,0,3.81,1.36,3.81,3.15,0,1.54-.85,2.4-1.77,2.74.69.22,1.54.85,1.54,2.91v.55c0,.78,0,1.71.16,2.23h-2.11c-.21-.5-.23-1.38-.23-2.57v-.19c0-1.38-.36-2.02-2.29-2.02h-1.86ZM653.64,14.97h2.23c1.49,0,2.1-.56,2.1-1.63s-.67-1.61-2-1.61h-2.32v3.24Z"/>
      <path class="cls-1" d="M666.39,16.21h-1.02c0,2.72-1.1,5.17-2.88,6.95-1.78,1.78-4.23,2.88-6.95,2.88-2.72,0-5.17-1.1-6.95-2.88-1.78-1.78-2.88-4.23-2.88-6.95,0-2.72,1.1-5.17,2.88-6.95,1.78-1.78,4.23-2.88,6.95-2.88,2.72,0,5.17,1.1,6.95,2.88,1.78,1.78,2.88,4.23,2.88,6.95h2.05c0-6.56-5.32-11.88-11.88-11.88-6.56,0-11.88,5.32-11.88,11.88,0,6.56,5.32,11.88,11.88,11.88,6.56,0,11.88-5.32,11.88-11.88h-1.02Z"/>
    </g>
  </g>
</svg>